<svg width="512" height="512" viewBox="0 0 512 512" fill="none" xmlns="http://www.w3.org/2000/svg">
<g clip-path="url(#clip0_249_800)">
<rect width="512" height="512" fill="white"/>
<path d="M514.828 2.82812L453.656 64H512V72H448V252H512V260H448V440H512V448H453.656L514.828 509.172L509.172 514.828L448 453.656V512H440V448H260V512H252V448H72V512H64V453.656L2.82812 514.828L-2.82812 509.172L58.3438 448H0V440H64V260H0V252H64V72H0V64H58.3438L-2.82812 2.82812L2.82812 -2.82812L64 58.3438V0H72V64H252V0H260V64H440V0H448V58.3438L509.172 -2.82812L514.828 2.82812ZM77.6562 440H200.982C171.395 431.166 144.803 415.389 123.095 394.561L77.6562 440ZM388.904 394.561C367.196 415.388 340.605 431.166 311.018 440H434.344L388.904 394.561ZM128.752 388.903C160.905 419.696 204.209 438.937 252 439.956V394.941C216.634 393.942 184.575 379.733 160.581 357.073L128.752 388.903ZM351.417 357.073C327.423 379.733 295.366 393.942 260 394.941V439.956C307.79 438.937 351.094 419.696 383.247 388.903L351.417 357.073ZM72 434.344L117.438 388.904C96.6109 367.196 80.834 340.605 72 311.018V434.344ZM440 311.018C431.166 340.605 415.388 367.196 394.561 388.904L440 434.344V311.018ZM166.241 351.414C188.784 372.629 218.843 385.943 252 386.938V265.656L166.241 351.414ZM260 386.938C293.157 385.943 323.215 372.628 345.758 351.414L260 265.656V386.938ZM72.0439 260C73.0632 307.79 92.3033 351.094 123.096 383.247L154.925 351.417C132.266 327.423 118.057 295.365 117.058 260H72.0439ZM394.942 260C393.943 295.366 379.733 327.423 357.073 351.417L388.903 383.247C419.696 351.094 438.937 307.79 439.956 260H394.942ZM125.062 260C126.057 293.157 139.371 323.215 160.585 345.758L246.344 260H125.062ZM351.414 345.758C372.628 323.215 385.943 293.157 386.938 260H265.656L351.414 345.758ZM160.585 166.241C139.371 188.784 126.057 218.843 125.062 252H246.344L160.585 166.241ZM357.073 160.581C379.733 184.575 393.943 216.634 394.942 252H439.956C438.937 204.209 419.696 160.905 388.903 128.752L357.073 160.581ZM265.656 252H386.938C385.943 218.843 372.629 188.784 351.414 166.241L265.656 252ZM123.096 128.752C92.303 160.905 73.0632 204.21 72.0439 252H117.058C118.057 216.634 132.266 184.576 154.926 160.582L123.096 128.752ZM252 125.062C218.843 126.056 188.784 139.371 166.241 160.585L252 246.344V125.062ZM260 246.344L345.758 160.585C323.215 139.371 293.157 126.056 260 125.062V246.344ZM72 200.981C80.8341 171.394 96.6109 144.803 117.438 123.095L72 77.6562V200.981ZM394.561 123.095C415.388 144.803 431.166 171.394 440 200.981V77.6562L394.561 123.095ZM252 72.043C204.21 73.0622 160.905 92.303 128.752 123.096L160.582 154.926C184.576 132.266 216.634 118.057 252 117.058V72.043ZM260 117.058C295.365 118.057 327.423 132.266 351.417 154.925L383.247 123.096C351.094 92.3033 307.79 73.0622 260 72.043V117.058ZM123.095 117.438C144.803 96.6107 171.395 80.8341 200.982 72H77.6562L123.095 117.438ZM311.018 72C340.605 80.834 367.196 96.6109 388.904 117.438L434.344 72H311.018Z" fill="#E2E3E9"/>
</g>
<defs>
<clipPath id="clip0_249_800">
<rect width="512" height="512" fill="white"/>
</clipPath>
</defs>
</svg>
