<svg width="352" height="244" viewBox="0 0 352 244" fill="none" xmlns="http://www.w3.org/2000/svg">
<g clip-path="url(#clip0_1474_7613)">
<rect opacity="0.93" x="27.7773" y="5.30859" width="3.67056" height="8.25875" rx="0.580784" transform="rotate(69 27.7773 5.30859)" fill="#74F0AF"/>
<rect opacity="0.83" x="74.9999" y="26.2216" width="5.25029" height="11.8132" rx="0.580784" transform="rotate(-84 74.9999 26.2216)" fill="#74F0AF"/>
<rect opacity="0.75" x="137.283" y="13" width="3.94933" height="8.886" rx="0.580784" transform="rotate(45 137.283 13)" fill="#74F0AF"/>
<rect opacity="0.75" x="299.314" y="193.628" width="3.94933" height="8.886" rx="0.580784" transform="rotate(103.171 299.314 193.628)" fill="#74F0AF"/>
<rect opacity="0.87" x="251" y="42.8192" width="3.48471" height="7.84059" rx="0.580784" transform="rotate(-54 251 42.8192)" fill="#74F0AF"/>
<rect opacity="0.97" x="293.428" y="48.5338" width="4.50689" height="10.1405" rx="0.580784" transform="rotate(33 293.428 48.5338)" fill="#74F0AF"/>
<rect opacity="0.72" x="39.9736" y="132.283" width="3.80994" height="8.57238" rx="0.580784" transform="rotate(-93 39.9736 132.283)" fill="#74F0AF"/>
<rect opacity="0.72" x="311.464" y="90.0903" width="3.80994" height="8.57238" rx="0.580784" transform="rotate(-65.2357 311.464 90.0903)" fill="#74F0AF"/>
<rect opacity="0.85" x="113.501" y="95.6934" width="3.76348" height="8.46784" rx="0.580784" transform="rotate(-98 113.501 95.6934)" fill="#74F0AF"/>
<rect opacity="0.86" x="180.059" y="112.536" width="4.46042" height="10.036" rx="0.580784" transform="rotate(132 180.059 112.536)" fill="#74F0AF"/>
<rect opacity="0.94" x="207.123" y="96.8549" width="4.41396" height="9.93141" rx="0.580784" transform="rotate(102 207.123 96.8549)" fill="#74F0AF"/>
<rect opacity="0.9" x="291.105" y="128.798" width="4.69274" height="10.5587" rx="0.580784" transform="rotate(-33 291.105 128.798)" fill="#74F0AF"/>
<rect opacity="0.94" x="15" y="193.381" width="3.62409" height="8.15421" rx="0.580784" transform="rotate(-12 15 193.381)" fill="#74F0AF"/>
<rect opacity="0.74" x="87.3657" y="181.185" width="3.39178" height="7.63151" rx="0.580784" transform="rotate(175 87.3657 181.185)" fill="#74F0AF"/>
<rect opacity="0.74" x="295.106" y="21.3168" width="3.39178" height="7.63151" rx="0.580784" transform="rotate(178.995 295.106 21.3168)" fill="#74F0AF"/>
<rect opacity="0.9" x="110.55" y="207.191" width="3.28608" height="7.39367" rx="0.580784" transform="rotate(1.39551 110.55 207.191)" fill="#74F0AF"/>
<rect opacity="0.97" x="228.612" y="211.386" width="3.85641" height="8.67692" rx="0.580784" transform="rotate(39 228.612 211.386)" fill="#74F0AF"/>
<rect opacity="0.8" x="336.406" y="162.6" width="3.94933" height="8.886" rx="0.580784" transform="rotate(-83 336.406 162.6)" fill="#74F0AF"/>
<rect opacity="0.79" x="63.8247" y="214.036" width="4.97151" height="11.1859" rx="0.580784" transform="rotate(-100.813 63.8247 214.036)" fill="#74F0AF"/>
<rect opacity="0.84" x="17.9861" y="68.8535" width="4.83213" height="10.8723" rx="0.580784" transform="rotate(129.077 17.9861 68.8535)" fill="#74F0AF"/>
<rect opacity="0.72" x="139.985" y="235.314" width="2.92715" height="6.58609" rx="0.580784" transform="rotate(-61 139.985 235.314)" fill="#74F0AF"/>
<rect opacity="0.94" x="349.101" y="101" width="3.29885" height="7.42242" rx="0.580784" transform="rotate(55.2867 349.101 101)" fill="#74F0AF"/>
<path d="M176 17.5C233.714 17.5 280.5 64.2862 280.5 122C280.5 179.714 233.714 226.5 176 226.5C118.286 226.5 71.5 179.714 71.5 122C71.5 64.2862 118.286 17.5 176 17.5Z" stroke="#DDFFEA"/>
<path d="M176 32.75C225.291 32.75 265.25 72.7086 265.25 122C265.25 171.291 225.291 211.25 176 211.25C126.709 211.25 86.75 171.291 86.75 122C86.75 72.7086 126.709 32.75 176 32.75Z" fill="#DDFFEA"/>
<path d="M176 32.75C225.291 32.75 265.25 72.7086 265.25 122C265.25 171.291 225.291 211.25 176 211.25C126.709 211.25 86.75 171.291 86.75 122C86.75 72.7086 126.709 32.75 176 32.75Z" stroke="#AEFFD0" stroke-width="1.5"/>
<path d="M176 47.75C217.007 47.75 250.25 80.9929 250.25 122C250.25 163.007 217.007 196.25 176 196.25C134.993 196.25 101.75 163.007 101.75 122C101.75 80.9929 134.993 47.75 176 47.75Z" fill="#AEFFD0"/>
<path d="M176 47.75C217.007 47.75 250.25 80.9929 250.25 122C250.25 163.007 217.007 196.25 176 196.25C134.993 196.25 101.75 163.007 101.75 122C101.75 80.9929 134.993 47.75 176 47.75Z" stroke="#80FBBA" stroke-width="1.5"/>
<g filter="url(#filter0_d_1474_7613)">
<path d="M116 122C116 88.8629 142.863 62 176 62C209.137 62 236 88.8629 236 122C236 155.137 209.137 182 176 182C142.863 182 116 155.137 116 122Z" fill="white" shape-rendering="crispEdges"/>
<path d="M176 62.75C208.723 62.75 235.25 89.2771 235.25 122C235.25 154.723 208.723 181.25 176 181.25C143.277 181.25 116.75 154.723 116.75 122C116.75 89.2771 143.277 62.75 176 62.75Z" stroke="#67E4A4" stroke-width="1.5" shape-rendering="crispEdges"/>
<rect x="161" y="119" width="30" height="24" rx="6" fill="#57D998"/>
<path d="M176 105.5C179.314 105.5 182 108.186 182 111.5V112.25C182 113.493 183.007 114.5 184.25 114.5C185.493 114.5 186.5 113.493 186.5 112.25V111.5C186.5 105.701 181.799 101 176 101C170.201 101 165.5 105.701 165.5 111.5V120.5H170V111.5C170 108.186 172.686 105.5 176 105.5Z" fill="#57D998"/>
<rect x="174.5" y="126.5" width="3" height="9" rx="1.5" fill="white"/>
</g>
</g>
<defs>
<filter id="filter0_d_1474_7613" x="100" y="46" width="152" height="152" filterUnits="userSpaceOnUse" color-interpolation-filters="sRGB">
<feFlood flood-opacity="0" result="BackgroundImageFix"/>
<feColorMatrix in="SourceAlpha" type="matrix" values="0 0 0 0 0 0 0 0 0 0 0 0 0 0 0 0 0 0 127 0" result="hardAlpha"/>
<feOffset/>
<feGaussianBlur stdDeviation="8"/>
<feComposite in2="hardAlpha" operator="out"/>
<feColorMatrix type="matrix" values="0 0 0 0 0 0 0 0 0 0 0 0 0 0 0 0 0 0 0.16 0"/>
<feBlend mode="normal" in2="BackgroundImageFix" result="effect1_dropShadow_1474_7613"/>
<feBlend mode="normal" in="SourceGraphic" in2="effect1_dropShadow_1474_7613" result="shape"/>
</filter>
<clipPath id="clip0_1474_7613">
<rect width="352" height="244" fill="white"/>
</clipPath>
</defs>
</svg>
