<svg width="512" height="512" viewBox="0 0 512 512" fill="none" xmlns="http://www.w3.org/2000/svg">
<rect width="512" height="512" fill="url(#paint0_linear_24_1871)"/>
<rect x="65" y="65" width="382" height="382" rx="64" fill="white"/>
<path d="M415 224.976V375C415 397.091 397.091 415 375 415H137C114.909 415 97 397.091 97 375V137C97 114.909 114.909 97 137 97H294.78" stroke="#0870FF" stroke-width="20" stroke-linecap="round" stroke-dasharray="32 42"/>
<path d="M412.968 90.9962C414.009 88.3582 417.741 88.3582 418.782 90.9962L431.287 122.702C431.604 123.508 432.242 124.145 433.047 124.463L464.754 136.968C467.392 138.008 467.392 141.742 464.754 142.782L433.047 155.287C432.242 155.605 431.604 156.243 431.287 157.048L418.782 188.754C417.741 191.392 414.009 191.392 412.968 188.754L400.463 157.048C400.146 156.243 399.508 155.605 398.703 155.287L366.996 142.782C364.358 141.742 364.358 138.008 366.996 136.968L398.703 124.463C399.508 124.145 400.146 123.508 400.463 122.702L412.968 90.9962ZM350.468 69.1212C351.509 66.4832 355.241 66.4832 356.282 69.1212L362.6 85.1397C362.918 85.9449 363.555 86.5828 364.36 86.9005L380.379 93.2178C383.017 94.2584 383.017 97.9918 380.379 99.0323L364.36 105.35C363.555 105.667 362.918 106.305 362.6 107.11L356.282 123.129C355.241 125.767 351.509 125.767 350.468 123.129L344.15 107.11C343.832 106.305 343.195 105.667 342.39 105.35L326.371 99.0323C323.733 97.9918 323.733 94.2584 326.371 93.2178L342.39 86.9005C343.195 86.5828 343.832 85.9449 344.15 85.1397L350.468 69.1212ZM395.38 47.4219C396.005 45.8392 398.245 45.8392 398.87 47.4219L403.013 57.9298C403.204 58.413 403.587 58.7958 404.07 58.9864L414.578 63.13C416.16 63.7542 416.16 65.9938 414.578 66.6182L404.07 70.7628C403.587 70.9533 403.204 71.3362 403.013 71.8194L398.87 82.3272C398.245 83.9097 396.005 83.9097 395.38 82.3272L391.237 71.8194C391.046 71.3362 390.663 70.9533 390.18 70.7628L379.672 66.6182C378.09 65.9938 378.09 63.7542 379.672 63.13L390.18 58.9864C390.663 58.7958 391.046 58.413 391.237 57.9298L395.38 47.4219Z" fill="#0870FF"/>
<path fill-rule="evenodd" clip-rule="evenodd" d="M169.333 329.622L232.189 258.909C235.502 255.182 241.269 255.012 244.795 258.538L262.128 275.872C262.256 276 262.38 276.131 262.498 276.265L284.009 250.452C287.271 246.537 293.191 246.268 296.795 249.872L342.667 295.743V178C342.667 173.214 338.786 169.333 334 169.333H178C173.214 169.333 169.333 173.214 169.333 178V329.622ZM180.929 342.667H334C338.786 342.667 342.667 338.786 342.667 334V320.257L291.249 268.839L253.991 313.548C250.927 317.225 245.462 317.722 241.785 314.658C238.108 311.594 237.611 306.129 240.675 302.452L251.529 289.427C250.939 289.071 250.381 288.638 249.872 288.128L239.038 277.294L180.929 342.667ZM178 152H334C348.359 152 360 163.641 360 178V334C360 348.359 348.359 360 334 360H178C163.641 360 152 348.359 152 334V178C152 163.641 163.641 152 178 152ZM217 247.333C200.247 247.333 186.667 233.753 186.667 217C186.667 200.247 200.247 186.667 217 186.667C233.753 186.667 247.333 200.247 247.333 217C247.333 233.753 233.753 247.333 217 247.333ZM217 230C224.18 230 230 224.18 230 217C230 209.82 224.18 204 217 204C209.82 204 204 209.82 204 217C204 224.18 209.82 230 217 230Z" fill="#3D3E42"/>
<defs>
<linearGradient id="paint0_linear_24_1871" x1="256" y1="0" x2="256" y2="512" gradientUnits="userSpaceOnUse">
<stop stop-color="#9FC4FF"/>
<stop offset="1" stop-color="#F0F6FF"/>
</linearGradient>
</defs>
</svg>
