<svg width="328" height="140" viewBox="0 0 328 140" fill="none" xmlns="http://www.w3.org/2000/svg">
<rect x="0.5" y="0.5" width="139" height="139" rx="37.5" stroke="#FAFBFE"/>
<rect x="10.5" y="10.5" width="119" height="119" rx="27.5" fill="#FAFBFE"/>
<rect x="10.5" y="10.5" width="119" height="119" rx="27.5" stroke="#F2F3F8"/>
<g filter="url(#filter0_d_1026_35672)">
<rect x="20" y="20" width="100" height="100" rx="18" fill="#F2F3F8" shape-rendering="crispEdges"/>
<rect x="20.5" y="20.5" width="99" height="99" rx="17.5" stroke="#E2E3E9" shape-rendering="crispEdges"/>
<rect x="30" y="30" width="80" height="80" rx="8" fill="#0870FF"/>
<rect x="30.5" y="30.5" width="79" height="79" rx="7.5" stroke="black" stroke-opacity="0.1"/>
<g clip-path="url(#clip0_1026_35672)">
<path d="M75.4288 83.5858C78.441 84.7516 81.2877 85.8568 83.2178 87.309C83.2986 87.3695 83.343 87.4663 83.343 87.5672C83.343 87.668 83.2945 87.7608 83.2138 87.8213C79.3657 90.6651 74.7989 92.1697 70.002 92.1697C64.0623 92.1697 58.482 89.8584 54.2867 85.6673C50.0874 81.4761 47.7778 75.9014 47.7778 69.9718C47.7778 64.0461 50.0914 58.4714 54.2867 54.2803C58.4861 50.0851 64.0664 47.7778 70.002 47.7778C75.4934 47.7778 80.7668 49.7947 84.8451 53.4614C84.95 53.5542 84.9823 53.7034 84.9218 53.8325C84.8652 53.9576 84.732 54.0342 84.5907 54.014C83.0078 53.7962 81.2998 53.6873 79.5111 53.6873C73.0384 53.6873 67.7812 55.1314 64.3127 57.8583C61.2197 60.2906 59.5844 63.6548 59.5844 67.5918C59.5844 71.9765 61.2682 75.4456 64.7245 78.1967C67.7771 80.621 71.8432 82.1982 75.4288 83.5858Z" fill="white"/>
<path d="M92.0123 67.7048C92.0769 67.7572 92.1173 67.8379 92.1253 67.9226C92.1899 68.6285 92.2182 69.3183 92.2223 69.9718C92.2223 72.7591 91.7094 75.4819 90.7 78.0636C90.6677 78.1523 90.595 78.2168 90.5102 78.2491C90.4739 78.2612 90.4375 78.2693 90.4012 78.2693C90.3487 78.2693 90.2962 78.2572 90.2478 78.229C87.607 76.7647 84.728 75.6917 81.946 74.655C76.5434 72.6421 71.8797 70.9036 71.8797 67.0916C71.8797 65.7323 72.449 64.5705 73.5271 63.7396C74.7707 62.7795 76.6362 62.2914 79.067 62.2914C83.6257 62.2914 87.3769 63.8606 92.0123 67.7048Z" fill="white"/>
</g>
</g>
<rect x="188.5" y="0.5" width="139" height="139" rx="37.5" stroke="#FAFBFE"/>
<rect x="198.5" y="10.5" width="119" height="119" rx="27.5" fill="#FAFBFE"/>
<rect x="198.5" y="10.5" width="119" height="119" rx="27.5" stroke="#F2F3F8"/>
<g filter="url(#filter1_d_1026_35672)">
<rect x="208" y="20" width="100" height="100" rx="18" fill="#F2F3F8" shape-rendering="crispEdges"/>
<rect x="208.5" y="20.5" width="99" height="99" rx="17.5" stroke="#E2E3E9" shape-rendering="crispEdges"/>
<g clip-path="url(#clip1_1026_35672)">
<path d="M256 30H218V68H256V30Z" fill="url(#paint0_linear_1026_35672)"/>
<path d="M246.426 34.8242H227.574C224.951 34.8242 222.824 36.9509 222.824 39.5742V58.4258C222.824 61.0491 224.951 63.1758 227.574 63.1758H246.426C249.049 63.1758 251.176 61.0491 251.176 58.4258V39.5742C251.176 36.9509 249.049 34.8242 246.426 34.8242Z" fill="white"/>
<path d="M248.801 46.6974V57.832C248.801 59.4716 247.472 60.8008 245.832 60.8008H228.168C226.528 60.8008 225.199 59.4716 225.199 57.832V40.168C225.199 38.5284 226.528 37.1992 228.168 37.1992H239.878" stroke="#0870FF" stroke-width="1.48437" stroke-linecap="round" stroke-dasharray="2.37 3.12"/>
<path d="M248.65 36.7536C248.727 36.5578 249.004 36.5578 249.081 36.7536L250.01 39.1068C250.033 39.1666 250.08 39.2139 250.14 39.2375L252.493 40.1656C252.689 40.2428 252.689 40.5199 252.493 40.5971L250.14 41.5252C250.08 41.5488 250.033 41.5961 250.01 41.6559L249.081 44.0091C249.004 44.2048 248.727 44.2048 248.65 44.0091L247.722 41.6559C247.698 41.5961 247.651 41.5488 247.591 41.5252L245.238 40.5971C245.042 40.5199 245.042 40.2428 245.238 40.1656L247.591 39.2375C247.651 39.2139 247.698 39.1666 247.722 39.1068L248.65 36.7536ZM244.011 35.1301C244.089 34.9343 244.366 34.9343 244.443 35.1301L244.912 36.3189C244.935 36.3787 244.983 36.426 245.042 36.4496L246.231 36.9185C246.427 36.9957 246.427 37.2728 246.231 37.35L245.042 37.8189C244.983 37.8424 244.935 37.8898 244.912 37.9495L244.443 39.1384C244.366 39.3342 244.089 39.3342 244.011 39.1384L243.542 37.9495C243.519 37.8898 243.472 37.8424 243.412 37.8189L242.223 37.35C242.027 37.2728 242.027 36.9957 242.223 36.9185L243.412 36.4496C243.472 36.426 243.519 36.3787 243.542 36.3189L244.011 35.1301ZM247.345 33.5196C247.391 33.4021 247.557 33.4021 247.604 33.5196L247.911 34.2994C247.925 34.3353 247.954 34.3637 247.99 34.3779L248.769 34.6854C248.887 34.7317 248.887 34.8979 248.769 34.9443L247.99 35.2519C247.954 35.266 247.925 35.2945 247.911 35.3303L247.604 36.1102C247.557 36.2276 247.391 36.2276 247.345 36.1102L247.037 35.3303C247.023 35.2945 246.995 35.266 246.959 35.2519L246.179 34.9443C246.061 34.8979 246.061 34.7317 246.179 34.6854L246.959 34.3779C246.995 34.3637 247.023 34.3353 247.037 34.2994L247.345 33.5196Z" fill="#0870FF"/>
<path fill-rule="evenodd" clip-rule="evenodd" d="M230.568 54.4641L235.233 49.2159C235.479 48.9393 235.907 48.9266 236.168 49.1883L237.455 50.4749C237.464 50.4844 237.474 50.4941 237.482 50.504L239.079 48.5882C239.321 48.2976 239.76 48.2777 240.028 48.5452L243.432 51.9497V43.2109C243.432 42.8557 243.144 42.5677 242.789 42.5677H231.211C230.856 42.5677 230.568 42.8557 230.568 43.2109V54.4641ZM231.428 55.4323H242.789C243.144 55.4323 243.432 55.1442 243.432 54.789V53.769L239.616 49.9529L236.851 53.2711C236.624 53.544 236.218 53.5809 235.945 53.3535C235.672 53.1261 235.635 52.7205 235.863 52.4476L236.668 51.4809C236.624 51.4545 236.583 51.4223 236.545 51.3845L235.741 50.5804L231.428 55.4323ZM231.211 41.2812H242.789C243.855 41.2812 244.719 42.1452 244.719 43.2109V54.789C244.719 55.8547 243.855 56.7187 242.789 56.7187H231.211C230.145 56.7187 229.281 55.8547 229.281 54.789V43.2109C229.281 42.1452 230.145 41.2812 231.211 41.2812ZM234.105 48.3567C232.862 48.3567 231.854 47.3488 231.854 46.1054C231.854 44.8621 232.862 43.8542 234.105 43.8542C235.349 43.8542 236.357 44.8621 236.357 46.1054C236.357 47.3488 235.349 48.3567 234.105 48.3567ZM234.105 47.0703C234.638 47.0703 235.07 46.6383 235.07 46.1054C235.07 45.5726 234.638 45.1406 234.105 45.1406C233.573 45.1406 233.141 45.5726 233.141 46.1054C233.141 46.6383 233.573 47.0703 234.105 47.0703Z" fill="#3D3E42"/>
</g>
<rect x="218.5" y="30.5" width="37" height="37" rx="7.5" stroke="black" stroke-opacity="0.1"/>
<g clip-path="url(#clip2_1026_35672)">
<mask id="mask0_1026_35672" style="mask-type:luminance" maskUnits="userSpaceOnUse" x="260" y="30" width="38" height="38">
<path d="M298 30H260V68H298V30Z" fill="white"/>
</mask>
<g mask="url(#mask0_1026_35672)">
<path d="M298 30H260V68H298V30Z" fill="url(#paint1_linear_1026_35672)"/>
<g filter="url(#filter2_f_1026_35672)">
<path d="M279.035 63.7445L253.274 48.522L252.841 36.6824H303.197V49.8955L279.035 63.7445Z" fill="url(#paint2_linear_1026_35672)" fill-opacity="0.1"/>
</g>
<path d="M264.904 39.1736L278.804 34.75L293.094 39.1736L278.999 44.8549L264.904 39.1736Z" fill="url(#paint3_linear_1026_35672)"/>
<path d="M278.999 44.8549V63.5469L266.205 55.8706L264.904 39.1736L278.999 44.8549Z" fill="url(#paint4_linear_1026_35672)"/>
<path d="M278.999 44.8549V63.5469L291.793 55.8706L293.094 39.1736L278.999 44.8549Z" fill="url(#paint5_linear_1026_35672)"/>
<mask id="mask1_1026_35672" style="mask-type:luminance" maskUnits="userSpaceOnUse" x="260" y="53" width="38" height="15">
<path d="M298 53.75H260V68H298V53.75Z" fill="white"/>
</mask>
<g mask="url(#mask1_1026_35672)">
<path d="M298 53.75H260V68H298V53.75Z" fill="white"/>
<path d="M278.999 45.2986V62.7157L267.075 55.563L265.862 40.0048L278.999 45.2986Z" fill="white" stroke="black" stroke-width="1.48437" stroke-linejoin="round"/>
<path d="M278.999 45.2986V62.7157L290.923 55.563L292.135 40.0048L278.999 45.2986Z" fill="white" stroke="black" stroke-width="1.48437" stroke-linejoin="round"/>
</g>
<path d="M255.102 53.3047H302.824" stroke="white" stroke-width="4.15625"/>
<path d="M257.922 53.3047H300.004" stroke="#0870FF" stroke-width="1.48437" stroke-dasharray="1.78 3.56"/>
</g>
</g>
<rect x="260.5" y="30.5" width="37" height="37" rx="7.5" stroke="black" stroke-opacity="0.1"/>
<g clip-path="url(#clip3_1026_35672)">
<path d="M256 72H218V110H256V72Z" fill="url(#paint6_linear_1026_35672)"/>
<path d="M245.609 84.9141C245.609 81.6349 242.951 78.9766 239.672 78.9766H228.984C225.705 78.9766 223.047 81.6349 223.047 84.9141V95.8985C223.047 96.0624 223.18 96.1953 223.344 96.1953H239.672C242.951 96.1953 245.609 93.537 245.609 90.2578V84.9141Z" fill="white"/>
<path d="M228.391 91.5937C228.391 88.3145 231.049 85.6562 234.328 85.6562H245.016C248.295 85.6562 250.953 88.3145 250.953 91.5937V102.578C250.953 102.742 250.82 102.875 250.656 102.875H234.328C231.049 102.875 228.391 100.217 228.391 96.9375V91.5937Z" fill="url(#paint7_linear_1026_35672)"/>
<path d="M241.174 92.1278C241.256 91.919 241.551 91.919 241.634 92.1278L242.624 94.6379C242.649 94.7017 242.699 94.7521 242.763 94.7773L245.273 95.7672C245.482 95.8496 245.482 96.1452 245.273 96.2276L242.763 97.2175C242.699 97.2426 242.649 97.2931 242.624 97.3568L241.634 99.867C241.551 100.076 241.256 100.076 241.174 99.867L240.184 97.3568C240.158 97.2931 240.108 97.2426 240.044 97.2175L237.534 96.2276C237.325 96.1452 237.325 95.8496 237.534 95.7672L240.044 94.7773C240.108 94.7521 240.158 94.7017 240.184 94.6379L241.174 92.1278ZM236.226 90.396C236.308 90.1872 236.603 90.1872 236.686 90.396L237.186 91.6642C237.211 91.7279 237.262 91.7784 237.325 91.8036L238.594 92.3037C238.802 92.386 238.802 92.6817 238.594 92.764L237.325 93.2641C237.262 93.2893 237.211 93.3397 237.186 93.4035L236.686 94.6717C236.603 94.8805 236.308 94.8805 236.226 94.6717L235.725 93.4035C235.7 93.3397 235.65 93.2893 235.586 93.2641L234.318 92.764C234.109 92.6817 234.109 92.386 234.318 92.3037L235.586 91.8036C235.65 91.7784 235.7 91.7279 235.725 91.6642L236.226 90.396ZM239.781 88.6782C239.831 88.5529 240.008 88.5529 240.057 88.6782L240.386 89.5101C240.401 89.5483 240.431 89.5786 240.469 89.5937L241.301 89.9218C241.426 89.9712 241.426 90.1485 241.301 90.1979L240.469 90.526C240.431 90.5411 240.401 90.5714 240.386 90.6096L240.057 91.4415C240.008 91.5667 239.831 91.5667 239.781 91.4415L239.453 90.6096C239.438 90.5714 239.408 90.541 239.369 90.526L238.538 90.1979C238.412 90.1485 238.412 89.9711 238.538 89.9218L239.369 89.5937C239.408 89.5786 239.438 89.5483 239.453 89.5101L239.781 88.6782Z" fill="white"/>
</g>
<rect x="218.5" y="72.5" width="37" height="37" rx="7.5" stroke="black" stroke-opacity="0.1"/>
<rect x="260" y="72" width="38" height="38" rx="7.99999" fill="white"/>
<rect x="260.5" y="72.5" width="37" height="37" rx="7.49999" stroke="black" stroke-opacity="0.1"/>
<path fill-rule="evenodd" clip-rule="evenodd" d="M278.25 90.25H274.5C274.086 90.25 273.75 90.5858 273.75 91C273.75 91.4142 274.086 91.75 274.5 91.75H278.25V95.5C278.25 95.9142 278.586 96.25 279 96.25C279.414 96.25 279.75 95.9142 279.75 95.5V91.75H283.5C283.914 91.75 284.25 91.4142 284.25 91C284.25 90.5858 283.914 90.25 283.5 90.25H279.75V86.5C279.75 86.0858 279.414 85.75 279 85.75C278.586 85.75 278.25 86.0858 278.25 86.5V90.25Z" fill="#CDCED4"/>
</g>
<rect x="120" y="83" width="88" height="2" fill="#E2E3E9"/>
<rect x="140" y="41" width="48" height="2" fill="#FAFBFE"/>
<rect x="139" y="69" width="50" height="2" fill="#FAFBFE"/>
<rect x="130" y="55" width="68" height="2" fill="#F2F3F8"/>
<rect x="130" y="97" width="68" height="2" fill="#F2F3F8"/>
<path fill-rule="evenodd" clip-rule="evenodd" d="M143 79.8344V88.1656C143 88.81 143.72 89.2104 144.292 88.8837L151.577 84.7181C152.141 84.396 152.141 83.604 151.577 83.2819L144.292 79.1163C143.72 78.7896 143 79.19 143 79.8344Z" fill="#CDCED4" stroke="white" stroke-linecap="round"/>
<path fill-rule="evenodd" clip-rule="evenodd" d="M167 37.8344V46.1656C167 46.81 167.72 47.2104 168.292 46.8837L175.577 42.7181C176.141 42.396 176.141 41.604 175.577 41.2819L168.292 37.1163C167.72 36.7896 167 37.19 167 37.8344Z" fill="#F2F3F8" stroke="white" stroke-linecap="round"/>
<path fill-rule="evenodd" clip-rule="evenodd" d="M151 51.8344V60.1656C151 60.81 151.72 61.2104 152.292 60.8837L159.577 56.7181C160.141 56.396 160.141 55.604 159.577 55.2819L152.292 51.1163C151.72 50.7896 151 51.19 151 51.8344Z" fill="#E2E3E9" stroke="white" stroke-linecap="round"/>
<path fill-rule="evenodd" clip-rule="evenodd" d="M172 102.166L172 93.8344C172 93.19 171.28 92.7896 170.708 93.1163L163.423 97.2819C162.859 97.604 162.859 98.396 163.423 98.7181L170.708 102.884C171.28 103.21 172 102.81 172 102.166Z" fill="#E2E3E9" stroke="white" stroke-linecap="round"/>
<path fill-rule="evenodd" clip-rule="evenodd" d="M176 74.1656L176 65.8344C176 65.19 175.28 64.7896 174.708 65.1163L167.423 69.2819C166.859 69.604 166.859 70.396 167.423 70.7181L174.708 74.8837C175.28 75.2104 176 74.81 176 74.1656Z" fill="#F2F3F8" stroke="white" stroke-linecap="round"/>
<defs>
<filter id="filter0_d_1026_35672" x="16" y="16" width="108" height="108" filterUnits="userSpaceOnUse" color-interpolation-filters="sRGB">
<feFlood flood-opacity="0" result="BackgroundImageFix"/>
<feColorMatrix in="SourceAlpha" type="matrix" values="0 0 0 0 0 0 0 0 0 0 0 0 0 0 0 0 0 0 127 0" result="hardAlpha"/>
<feOffset/>
<feGaussianBlur stdDeviation="2"/>
<feComposite in2="hardAlpha" operator="out"/>
<feColorMatrix type="matrix" values="0 0 0 0 0 0 0 0 0 0 0 0 0 0 0 0 0 0 0.04 0"/>
<feBlend mode="normal" in2="BackgroundImageFix" result="effect1_dropShadow_1026_35672"/>
<feBlend mode="normal" in="SourceGraphic" in2="effect1_dropShadow_1026_35672" result="shape"/>
</filter>
<filter id="filter1_d_1026_35672" x="204" y="16" width="108" height="108" filterUnits="userSpaceOnUse" color-interpolation-filters="sRGB">
<feFlood flood-opacity="0" result="BackgroundImageFix"/>
<feColorMatrix in="SourceAlpha" type="matrix" values="0 0 0 0 0 0 0 0 0 0 0 0 0 0 0 0 0 0 127 0" result="hardAlpha"/>
<feOffset/>
<feGaussianBlur stdDeviation="2"/>
<feComposite in2="hardAlpha" operator="out"/>
<feColorMatrix type="matrix" values="0 0 0 0 0 0 0 0 0 0 0 0 0 0 0 0 0 0 0.04 0"/>
<feBlend mode="normal" in2="BackgroundImageFix" result="effect1_dropShadow_1026_35672"/>
<feBlend mode="normal" in="SourceGraphic" in2="effect1_dropShadow_1026_35672" result="shape"/>
</filter>
<filter id="filter2_f_1026_35672" x="249.718" y="33.5598" width="56.6011" height="33.3072" filterUnits="userSpaceOnUse" color-interpolation-filters="sRGB">
<feFlood flood-opacity="0" result="BackgroundImageFix"/>
<feBlend mode="normal" in="SourceGraphic" in2="BackgroundImageFix" result="shape"/>
<feGaussianBlur stdDeviation="1.56127" result="effect1_foregroundBlur_1026_35672"/>
</filter>
<linearGradient id="paint0_linear_1026_35672" x1="237" y1="30" x2="237" y2="68" gradientUnits="userSpaceOnUse">
<stop stop-color="#9FC4FF"/>
<stop offset="1" stop-color="#F0F6FF"/>
</linearGradient>
<linearGradient id="paint1_linear_1026_35672" x1="279" y1="22.4668" x2="279" y2="52.5996" gradientUnits="userSpaceOnUse">
<stop stop-color="#9FC4FF"/>
<stop offset="1" stop-color="#F0F6FF"/>
</linearGradient>
<linearGradient id="paint2_linear_1026_35672" x1="279.339" y1="67.5609" x2="279.339" y2="47.3077" gradientUnits="userSpaceOnUse">
<stop/>
<stop offset="0.691869"/>
<stop offset="1" stop-opacity="0"/>
</linearGradient>
<linearGradient id="paint3_linear_1026_35672" x1="278.035" y1="27.9961" x2="280.95" y2="43.1635" gradientUnits="userSpaceOnUse">
<stop stop-color="#0870FF"/>
<stop offset="1" stop-color="#F0F6FF"/>
</linearGradient>
<linearGradient id="paint4_linear_1026_35672" x1="258.553" y1="47.5899" x2="283.074" y2="45.6217" gradientUnits="userSpaceOnUse">
<stop stop-color="#0870FF"/>
<stop offset="1" stop-color="#F0F6FF"/>
</linearGradient>
<linearGradient id="paint5_linear_1026_35672" x1="279.594" y1="45.9571" x2="298.298" y2="60.3966" gradientUnits="userSpaceOnUse">
<stop stop-color="#F0F6FF"/>
<stop offset="1" stop-color="#0870FF"/>
</linearGradient>
<linearGradient id="paint6_linear_1026_35672" x1="237" y1="72" x2="237" y2="110" gradientUnits="userSpaceOnUse">
<stop stop-color="#9FC4FF"/>
<stop offset="1" stop-color="#F0F6FF"/>
</linearGradient>
<linearGradient id="paint7_linear_1026_35672" x1="239.672" y1="85.6562" x2="239.672" y2="102.875" gradientUnits="userSpaceOnUse">
<stop stop-color="#4A8FFF"/>
<stop offset="1" stop-color="#0870FF"/>
</linearGradient>
<clipPath id="clip0_1026_35672">
<rect width="44.4444" height="44.4444" fill="white" transform="translate(47.7778 47.7778)"/>
</clipPath>
<clipPath id="clip1_1026_35672">
<rect x="218" y="30" width="38" height="38" rx="8" fill="white"/>
</clipPath>
<clipPath id="clip2_1026_35672">
<rect x="260" y="30" width="38" height="38" rx="8" fill="white"/>
</clipPath>
<clipPath id="clip3_1026_35672">
<rect x="218" y="72" width="38" height="38" rx="8" fill="white"/>
</clipPath>
</defs>
</svg>
