<?xml version="1.0" encoding="UTF-8"?>
<svg width="40" height="40" fill="none" version="1.1" viewBox="0 0 40 40" xml:space="preserve" xmlns="http://www.w3.org/2000/svg">
    <rect width="40" height="40" fill="#0e319f" stroke-width=".83333"/>
    <g transform="matrix(.53548 0 0 .53549 6.2217 6.3445)" clip-path="url(#a)" stroke-width="1.0005" style="paint-order:stroke markers fill">
        <g stroke-width="1.0005">
            <path d="m38.914 13.35c0 5.574-5.144 12.15-12.927 12.15h-7.497l-0.368 2.322-1.749 11.178h-9.317l5.605-36h15.095c5.083 0 9.082 2.833 10.555 6.77a9.687 9.687 0 0 1 0.603 3.58z" fill="#b9c6ea" style="paint-order:stroke markers fill"/>
            <path d="m44.284 23.7a12.894 12.894 0 0 1-12.754 10.8h-5.206l-2.167 13.5h-9.267l1.483-9 1.75-11.178 0.367-2.322h7.497c7.773 0 12.927-6.576 12.927-12.15 3.825 1.974 6.055 5.963 5.37 10.35z" fill="#fff" style="paint-order:stroke markers fill"/>
            <path d="m38.914 13.35c-1.604-0.839-3.549-1.35-5.666-1.35h-12.64l-2.118 13.5h7.497c7.773 0 12.927-6.576 12.927-12.15z" fill="#eaeef9" style="paint-order:stroke markers fill"/>
        </g>
    </g>
    <defs>
        <clipPath id="a">
            <path d="m7.056 3h37.35v45h-37.35z" fill="#fff"/>
        </clipPath>
    </defs>
</svg>
