<svg width="72" height="72" viewBox="0 0 72 72" fill="none" xmlns="http://www.w3.org/2000/svg">
<rect width="72" height="72" rx="36" fill="#E1FFE0"/>
<path fill-rule="evenodd" clip-rule="evenodd" d="M47 19C54.1797 19 60 24.7975 60 31.9491C60 34.5172 59.2457 36.9085 57.9512 38.9216H58L57.8145 39.1317C57.1916 40.0604 56.4516 40.9032 55.6152 41.6414L42.793 56.2713C39.7049 59.7947 34.2485 59.9249 30.9961 56.5515L17.4082 42.4566C16.1258 41.5356 15.0189 40.3894 14.1465 39.0734L14 38.9216H14.0488C12.7543 36.9085 12 34.5172 12 31.9491C12 24.7975 17.8203 19 25 19C29.6338 19 33.698 21.4171 36 25.0524C38.302 21.4171 42.3662 19 47 19ZM25 22.9843C20.0294 22.9843 16 26.998 16 31.9491C16 33.7283 16.521 35.377 17.418 36.7719C17.4339 36.7966 17.4476 36.8228 17.4629 36.8478C17.4697 36.8578 17.4777 36.8669 17.4844 36.8769C18.0129 37.6742 18.6672 38.3843 19.4199 38.9781L19.748 39.2251L20.0312 39.4489C20.1222 39.5276 20.2094 39.6112 20.293 39.6979L33.8789 53.7909C35.5043 55.4768 38.2345 55.4132 39.7793 53.6508L39.8613 53.5535L36.5859 50.291C35.8049 49.513 35.8049 48.2519 36.5859 47.4739C37.367 46.6959 38.633 46.6959 39.4141 47.4739L42.498 50.5458L44.5215 48.2346L41.5859 45.3106C40.8049 44.5326 40.8049 43.2715 41.5859 42.4935C42.367 41.7155 43.633 41.7155 44.4141 42.4935L47.1582 45.2269L50.5664 41.3418C48.5089 39.4243 46.6343 38.1155 44.8262 37.6007C42.9448 37.0652 40.8796 37.3176 38.3281 39.4177L36.9824 40.7601C34.7827 42.9505 31.2173 42.9505 29.0176 40.7601C26.9033 38.6541 26.8088 35.2694 28.8027 33.0502L33.3262 28.0153C33.0558 27.7732 32.8162 27.493 32.6172 27.1788C31.0156 24.6496 28.2012 22.9843 25 22.9843ZM47 22.9843C43.7988 22.9843 40.9844 24.6496 39.3828 27.1788C39.1162 27.5997 38.776 27.9584 38.3867 28.2468L38.4434 28.2974L31.7832 35.7077C31.2054 36.3511 31.2328 37.3326 31.8457 37.9431C32.4833 38.5774 33.5167 38.5774 34.1543 37.9431L35.5859 36.517L35.7188 36.3945C39.1453 33.5502 42.567 32.813 45.9238 33.7681C48.5984 34.5293 51.0248 36.3173 53.25 38.3866C53.7129 37.9407 54.1307 37.4509 54.4883 36.9178C54.501 36.8988 54.5143 36.8801 54.5273 36.8614C54.5454 36.8316 54.5631 36.8013 54.582 36.7719C55.479 35.377 56 33.7283 56 31.9491C56 26.998 51.9706 22.9843 47 22.9843Z" fill="#36D046"/>
</svg>
