<?xml version="1.0" encoding="UTF-8"?>
<svg width="69.7143" height="24" version="1.1" viewBox="0 0 69.7143 24" xmlns="http://www.w3.org/2000/svg" xmlns:xlink="http://www.w3.org/1999/xlink">
    <defs>
        <polygon id="path-1" points="7.39246 9.07006 0.0298111 9.07006 0.0298111 0.0177432 7.39246 0.0177432"/>
    </defs>
    <g transform="matrix(1.14288 0 0 1.14288 -4.59922e-7 -5.21937e-5)" fill="none" fill-rule="evenodd">
        <g id="SPB_&amp;_AltPay_NewAssets" transform="translate(-99,-159)">
            <g transform="translate(99,159)">
                <g fill="#d03238">
                    <polygon points="12.7766 12.1073 17.8131 12.1002 17.629 13.2702 13.4176 17.3754 16.9512 17.3682 16.7459 18.6318 11.5417 18.6327 11.7592 17.3296 15.7962 13.3826 12.5757 13.3824"/>
                    <path d="m6.21202 11.703c-0.00132 0.01499-0.121582 0.742657-0.284109 1.6033-0.062223 0.329362-0.308605 0.506169-0.592875 0.567493-0.469298 0.101188-0.974358 0.08262-0.974358 0.08262l-2.22188-0.0058 0.487839-3.00625 2.01329 0.0057s0.13626-0.0029 0.326503 9.8e-5c0.21622 0.0035 0.502228 0.01449 0.737247 0.04611 0.201284 0.02705 0.365227 0.06921 0.415927 0.134512 0.066859 0.0862 0.094478 0.19623 0.10378 0.296794 0.013198 0.142957-0.010655 0.266722-0.011363 0.275399m1.05863-1.59676c-0.110379-0.118967-0.266114-0.210723-0.442097-0.281512-0.182485-0.073385-0.38673-0.124225-0.584763-0.15939-0.252241-0.0448263-0.494374-0.064216-0.668489-0.0725305-0.160177-0.0076573-0.262799-0.0058827-0.262799-0.0058827l-2.20163-3.286e-4 -1.63834-2.301e-4 -1.47253 9.04597 1.371 0.001446 0.541918-3.35313 2.65818 0.01173s1.03497 0.04151 1.7698-0.355356c0.734768-0.397226 0.929292-1.30023 0.929292-1.30023s0.080829-0.335014 0.146818-0.744103c0.072524-0.449216 0.146786-0.98861 0.18535-1.27584 0.016932-0.126033 0.026975-0.203526 0.026975-0.203526s0.017833-0.09314 0.019507-0.237507c0.00235-0.202047-0.026943-0.504428-0.180972-0.792512-0.050957-0.0953-0.115562-0.189033-0.197228-0.277075"/>
                    <polygon points="24.6388 9.58492 25.9574 9.58383 24.4799 18.6343 23.1579 18.6322"/>
                    <polygon points="32.9486 12.1048 33.3953 16.6968 35.341 12.0965 36.902 12.1008 37.3634 16.7157 39.3092 12.1051 40.6215 12.1039 37.8326 18.6288 36.2746 18.6289 35.8258 14.06 33.8572 18.629 32.3256 18.6334 31.6837 12.1058"/>
                    <path d="m21.9155 14.5398-2.94542-0.0033 0.117171-0.477315s0.1023-0.373202 0.306546-0.532657c0.204438-0.159291 0.465563-0.186371 0.711527-0.21069 0.246124-0.02445 0.897392-0.07128 1.42904 0.04055 0.17653 0.037 0.344369 0.138357 0.388018 0.288446 0.103169 0.354272-0.0069 0.894915-0.0069 0.894915m0.286394-2.37898c-0.369605-0.123009-1.01154-0.147361-1.55326-0.140493-0.525115 0.0067-0.765928 0.03175-0.961869 0.07486 0 0-0.934153 0.136714-1.46422 0.807235-0.530072 0.670488-0.688221 2.13776-0.688221 2.13776s-0.31469 1.62144-0.222626 2.16169c0.09187 0.540249 0.256908 1.041 0.856607 1.27607 0.599828 0.235009 1.10853 0.224559 1.10853 0.224559s1.0688 0.08571 1.87413-0.10878c0.805361-0.194061 1.22995-0.772957 1.22995-0.772957s0.188859-0.248911 0.325119-0.546296c0.136389-0.297352 0.176337-0.503737 0.182324-0.529174l0.08447-0.350296-1.36917 0.0018s-0.07545 0.922488-0.813666 1.00764c-0.738019 0.08495-1.13415 0.05285-1.27691 0.04736-0.14067-0.0053-0.933638 0.0281-0.869354-0.646892 3.22e-4 -0.0091 9.01e-4 -0.02245 0.0018-0.04141 0.03676-0.769869 0.12052-0.969385 0.12052-0.969385l4.29794-0.01236 0.183386-1.08375c0.208687-1.23295 0.0555-2.17062-1.04547-2.53719"/>
                    <path d="m18.6561 16.7744c-0.0046 0.0239-0.0083 0.04735-0.01154 0.07058-0.0065 0.118231 0.01306-0.07708 0.01154-0.07058"/>
                    <path d="m26.7637 16.7759c-0.0046 0.02391-0.0083 0.04743-0.01154 0.07066-0.0065 0.118089 0.01306-0.07731 0.01154-0.07066"/>
                    <path d="m30.0115 14.538-2.94522-0.0031 0.117139-0.477512s0.1023-0.373301 0.306546-0.532493c0.204277-0.159291 0.465402-0.186535 0.711527-0.210888 0.246124-0.02415 0.897231-0.07125 1.42907 0.04078 0.176336 0.03687 0.344207 0.138192 0.387985 0.288445 0.103201 0.354273-7e-3 0.894719-7e-3 0.894719m0.298079-2.3757c-0.369831-0.123042-1.0117-0.147394-1.55346-0.14046-0.525115 0.0066-0.765961 0.03168-0.961901 0.0748 0 0-0.934153 0.136911-1.46422 0.807235-0.530073 0.670685-0.68819 2.13776-0.68819 2.13776s-0.314657 1.6216-0.222626 2.16185c0.09206 0.540282 0.256909 1.04073 0.856769 1.27607 0.599699 0.235043 1.10836 0.224592 1.10836 0.224592s1.06896 0.08548 1.87413-0.108779c0.805329-0.194291 1.22992-0.773155 1.22992-0.773155s0.188891-0.248944 0.325119-0.54623c0.136421-0.297254 0.176336-0.503803 0.182517-0.52924l0.08447-0.350296-1.36933 0.0018s-0.07545 0.922587-0.813666 1.00754c-0.738019 0.08505-1.13415 0.05314-1.27675 0.04772-0.140638-0.0053-0.933767 0.0279-0.869548-0.647056 3.54e-4 -0.0091 9.34e-4 -0.02248 0.0018-0.04151 0.03673-0.769869 0.120487-0.969385 0.120487-0.969385l4.29797-0.01226 0.183387-1.08369c0.208848-1.23295 0.05549-2.17062-1.04527-2.53732"/>
                    <path d="m42.1423 12.1065 0.845824 4.77035 2.39323-4.77532 1.34602 0.01173-3.44809 6.82073s-0.623874 1.2342-1.01099 1.54736c-0.386956 0.313488-0.623391 0.453652-0.940012 0.485596-0.316427 0.03211-0.443481 0.05465-0.747193 0l-0.32087-0.05754 0.200704-1.21787s0.533066 0.102371 0.850588-0.02554c0.31749-0.128169 0.574237-0.680249 0.574237-0.680249l0.160081-0.276155-1.24617-6.60498z"/>
                </g>
                <path d="m47.213 12.7549 1.38774 2e-3 0.08266-0.549648s0.148427-0.991568 0.478986-1.18313c0.105873-0.06136 0.275675-0.119789 0.472131-0.154624 0.362555-0.06418 0.825318-0.07168 1.19972-0.05787 0.577585 0.02126 0.793515 0.02649 1.38063 0.09461 0.587338 0.06826 0.437494 0.646957 0.437494 0.646957l-0.114854 0.862972s-0.05018 0.386578-0.185672 0.628094c-0.119811 0.213582-0.4467 0.357197-0.635913 0.420329-0.457097 0.152225-2.02134 0.558126-2.02134 0.558126l-1.23082 0.362292s-0.755337 0.223572-1.17957 0.70161c-0.424039 0.478202-0.590847 1.02197-0.648789 1.30591-0.05797 0.283746-0.3829 2.23842-0.3829 2.23842l6.63751 0.0029 0.22121-1.35471-5.24977 0.0061 0.09451-0.551981s0.06097-0.569136 0.286587-0.754751c0.0712-0.05879 0.106742-0.136549 0.525823-0.289071 0.25002-0.0911 1.10643-0.323972 1.10643-0.323972l1.98087-0.551619s1.08062-0.284108 1.50627-0.885878c0.425616-0.601606 0.58943-1.755 0.58943-1.755s0.1145-1.11967 0.0272-1.47072c-0.0871-0.351008-0.412381-0.772586-0.806933-0.952252-0.394714-0.179667-0.808355-0.284831-2.00363-0.268136-1.19515 0.016859-1.78529 0.073845-2.39027 0.300967-0.604978 0.226925-0.954465 0.641272-1.17709 1.2252-0.24561 0.551455-0.387664 1.74688-0.387664 1.74688" fill="#b3b1b1"/>
                <g transform="translate(53.5963 9.56338)">
                    <mask id="mask-2" fill="#ffffff">
                        <use xlink:href="#path-1"/>
                    </mask>
                    <path d="m4.74088 5.71062-2.90177-0.0045023 3.53201-3.84136zm1.37129-0.0010845 0.92955-5.69077-1.6469-0.00101878-5.13192 5.62675-0.233088 1.42488 4.48809-5.258e-4 -0.328434 1.9994 1.37673 0.00181 0.325119-2.00105 1.27144 0.00269 0.229708-1.36398z" fill="#b3b1b1" mask="url(#mask-2)"/>
                </g>
                <g fill="#b3b1b1">
                    <path d="m10.1801 10.3279h4.22571s0.947899-0.781996 1.61967-1.28347c0.671773-0.501568 1.89464-1.29355 1.89464-1.29355l-2.38689-1.14021s-2.01706 1.27548-2.87347 1.87728c-0.832755 0.554512-2.47966 1.83995-2.47966 1.83995"/>
                    <path d="m19.2644 6.94459-1.96018-1.34732s1.77412-1.02874 4.13203-1.98879c2.35792-0.960183 3.61542-1.35954 3.61542-1.35954l0.398061 1.90847s-2.2701 0.774962-3.57106 1.40253c-1.34354 0.585009-2.61428 1.38465-2.61428 1.38465"/>
                    <path d="m26.8997 3.73855-0.339927-1.95573s2.41956-0.656817 4.63664-1.07803c2.21689-0.421216 5.15774-0.620239 5.15774-0.620239l-0.973038 3.02104s-2.58637-0.360418-5.01285-0.023991c-1.8918 0.229981-3.46857 0.656948-3.46857 0.656948"/>
                    <path d="m36.9163 3.36064 1.63683-3.35665s3.58326-0.0710845 6.67285 0.415793c3.08975 0.487042 5.91587 1.23729 5.85439 1.27012l-7.83613 4.18409s-1.83016-1.18372-4.10412-1.90998c-1.28773-0.383488-2.22381-0.60338-2.22381-0.60338"/>
                    <path d="m44.649 6.78694 1.72306 1.33299h14.1533s-0.02881-0.46785-0.405851-1.13042c-0.236049-0.415268-0.663114-0.854132-1.1112-1.31035-0.16272-0.165765-0.815758-0.685113-1.30273-1.00754-1.24971-0.826822-1.94746-1.14655-3.2433-1.74951z"/>
                </g>
                <path d="m11.0961 12.1002c-0.531263 0-1.03304 0.213944-1.46184 0.453685l0.075196-0.453685h-1.40783l-1.12732 6.498h1.40886l0.624582-3.59994c0.130112-0.730531 0.662566-1.63228 1.70745-1.63228l0.728363-3e-3 0.219053-1.26283z" fill="#d03238"/>
            </g>
        </g>
    </g>
</svg>
