<?xml version="1.0" encoding="UTF-8"?>
<svg width="53.7" height="24" version="1.1" viewBox="0 0 53.7 24" xmlns="http://www.w3.org/2000/svg">
    <g transform="matrix(1.0902 0 0 1.0902 -.423864 -.321422)" fill="none" fill-rule="evenodd">
        <g transform="translate(-100,-159)">
            <g transform="translate(100,159)">
                <g fill="#1a1919">
                    <polygon points="3.77543 22.2595 6.12112 22.2595 6.12112 0.294828 3.77543 0.294828"/>
                    <polygon points="6.86078 22.2595 7.58793 22.2595 7.58793 0.294828 6.86078 0.294828"/>
                    <polygon points="8.22112 22.2595 9.52241 22.2595 9.52241 0.294828 8.22112 0.294828"/>
                    <polygon points="10.7772 22.2595 11.5043 22.2595 11.5043 0.294828 10.7772 0.294828"/>
                    <polygon points="11.8203 22.2595 12.3806 22.2595 12.3806 0.294828 11.8203 0.294828"/>
                    <polygon points="1.99181 22.2595 2.71897 22.2595 2.71897 0.294828 1.99181 0.294828"/>
                    <polygon points="0.388793 22.2595 1.69009 22.2595 1.69009 0.294828 0.388793 0.294828"/>
                    <polygon points="16.2655 22.2595 18.6112 22.2595 18.6112 0.294828 16.2655 0.294828"/>
                    <polygon points="19.3504 22.2595 20.0776 22.2595 20.0776 0.294828 19.3504 0.294828"/>
                    <polygon points="20.7112 22.2595 22.0125 22.2595 22.0125 0.294828 20.7112 0.294828"/>
                    <polygon points="23.2668 22.2595 23.994 22.2595 23.994 0.294828 23.2668 0.294828"/>
                    <polygon points="24.3099 22.2595 24.8703 22.2595 24.8703 0.294828 24.3099 0.294828"/>
                    <polygon points="14.4815 22.2595 15.2086 22.2595 15.2086 0.294828 14.4815 0.294828"/>
                    <polygon points="12.8784 22.2595 14.1797 22.2595 14.1797 0.294828 12.8784 0.294828"/>
                    <polygon points="25.7918 22.2595 27.0931 22.2595 27.0931 0.294828 25.7918 0.294828"/>
                    <polygon points="28.3474 22.2595 29.0746 22.2595 29.0746 0.294828 28.3474 0.294828"/>
                    <polygon points="29.3909 22.2595 29.9513 22.2595 29.9513 0.294828 29.3909 0.294828"/>
                    <polygon points="32.0522 22.2595 32.7793 22.2595 32.7793 0.294828 32.0522 0.294828"/>
                    <polygon points="30.4491 22.2595 31.7504 22.2595 31.7504 0.294828 30.4491 0.294828"/>
                    <polygon points="33.7457 22.2595 34.4728 22.2595 34.4728 0.294828 33.7457 0.294828"/>
                    <polygon points="34.7888 22.2595 35.3491 22.2595 35.3491 0.294828 34.7888 0.294828"/>
                    <polygon points="37.4504 22.2595 38.1776 22.2595 38.1776 0.294828 37.4504 0.294828"/>
                    <polygon points="35.8474 22.2595 37.1487 22.2595 37.1487 0.294828 35.8474 0.294828"/>
                    <polygon points="38.8112 22.2595 41.1569 22.2595 41.1569 0.294828 38.8112 0.294828"/>
                    <polygon points="41.8961 22.2595 42.6233 22.2595 42.6233 0.294828 41.8961 0.294828"/>
                    <polygon points="43.2565 22.2595 44.5578 22.2595 44.5578 0.294828 43.2565 0.294828"/>
                    <polygon points="45.8125 22.2595 46.5397 22.2595 46.5397 0.294828 45.8125 0.294828"/>
                    <polygon points="46.8556 22.2595 47.4159 22.2595 47.4159 0.294828 46.8556 0.294828"/>
                    <polygon points="48.3375 22.2595 49.6388 22.2595 49.6388 0.294828 48.3375 0.294828"/>
                </g>
                <polygon points="3.04224 22.3091 48.0056 22.3091 48.0056 9.99871 3.04224 9.99871" fill="#fffffe"/>
                <g fill="#1a1919">
                    <path d="m3.89009 21.8371v-11.1379h4.17931c0.850431 0 1.5319 0.111638 2.04784 0.337069 0.513362 0.225431 0.915518 0.572845 1.2056 1.04224 0.293103 0.466811 0.438362 0.956466 0.438362 1.46983 0 0.474569-0.129742 0.923276-0.386207 1.3431-0.256897 0.420259-0.64569 0.759914-1.16681 1.01897 0.674138 0.196983 1.19267 0.534052 1.55302 1.01121 0.362931 0.474138 0.544396 1.03707 0.544396 1.68534 0 0.523275-0.111638 1.00819-0.331896 1.4569-0.220259 0.448276-0.492672 0.793104-0.81681 1.03707-0.324138 0.240948-0.731035 0.425-1.21853 0.549569-0.490086 0.124569-1.08879 0.186638-1.79914 0.186638zm1.47759-6.4556h2.40862c0.653448 0 1.12241-0.04397 1.40517-0.129741 0.375862-0.111638 0.658621-0.297845 0.847844-0.557327 0.189225-0.259052 0.285345-0.58319 0.285345-0.975 0-0.37069-0.08836-0.697414-0.267241-0.977156-0.176293-0.282758-0.430173-0.477155-0.759483-0.581034-0.32931-0.103448-0.894828-0.155604-1.6931-0.155604h-2.22716zm0 5.14871h2.77414c0.477155 0 0.811638-0.0181 1.00603-0.05431 0.337069-0.05948 0.622414-0.160776 0.850431-0.303448 0.228017-0.142242 0.414655-0.349569 0.5625-0.621983s0.220259-0.585776 0.220259-0.940948c0-0.417673-0.106035-0.778018-0.321552-1.08664-0.2125-0.308621-0.50819-0.523707-0.886638-0.648276-0.375862-0.124138-0.920259-0.186638-1.62802-0.186638h-2.57716z"/>
                    <path d="m13.6435 17.8004c0-1.49095 0.414656-2.59526 1.24698-3.31336 0.692242-0.596552 1.54009-0.894397 2.53836-0.894397 1.1069 0 2.01422 0.362931 2.7194 1.08879 0.702586 0.723275 1.05517 1.72672 1.05517 3.00474 0 1.03707-0.155603 1.85129-0.466379 2.44483-0.311207 0.593966-0.765086 1.05517-1.36121 1.38448-0.593965 0.329311-1.2444 0.492673-1.94698 0.492673-1.1306 0-2.0431-0.360345-2.74052-1.08362s-1.04483-1.76552-1.04483-3.12414zm1.4 0.0026c0 1.0319 0.225431 1.80431 0.676724 2.31509 0.453448 0.513362 1.02155 0.770259 1.70862 0.770259 0.67888 0 1.2444-0.256897 1.69784-0.772845 0.451293-0.515948 0.676724-1.30129 0.676724-2.35646 0-0.99569-0.228017-1.75-0.681896-2.26078-0.453449-0.513362-1.01854-0.770259-1.69267-0.770259-0.687069 0-1.25517 0.254311-1.70862 0.764655-0.451293 0.510776-0.676724 1.28104-0.676724 2.31034z"/>
                    <polygon points="22.7772 21.8371 24.1461 21.8371 24.1461 10.6991 22.7772 10.6991"/>
                    <path d="m31.7711 19.2237 1.41552 0.186638c-0.220259 0.821983-0.632328 1.46207-1.23405 1.91595-0.601293 0.453879-1.36896 0.681897-2.30474 0.681897-1.17716 0-2.11034-0.362931-2.8-1.08879-0.689655-0.723276-1.03448-1.74224-1.03448-3.05172 0-1.35302 0.347414-2.40603 1.04483-3.15259 0.697413-0.749138 1.60216-1.12241 2.71422-1.12241 1.07629 0 1.95517 0.365518 2.63707 1.09914 0.681465 0.733621 1.02371 1.76552 1.02371 3.09569 0 0.08017-0.0026 0.202155-0.0078 0.362931h-6.01207c0.05172 0.884052 0.300862 1.56336 0.751724 2.03276 0.448707 0.468965 1.01121 0.705172 1.68276 0.705172 0.500431 0 0.928017-0.132328 1.2806-0.396983 0.355173-0.264224 0.635345-0.687069 0.842673-1.26767zm-4.48017-2.19354h4.49569c-0.059483-0.678879-0.23319-1.18707-0.515948-1.52672-0.432759-0.526293-0.998276-0.790948-1.69052-0.790948-0.627155 0-1.15345 0.209914-1.58146 0.630172-0.425 0.419828-0.660776 0.982328-0.707759 1.6875z"/>
                    <path d="m37.8871 20.6159 0.186638 1.20819c-0.383621 0.0806-0.728448 0.121983-1.02931 0.121983-0.494828 0-0.87888-0.07802-1.15345-0.236207-0.272413-0.15819-0.464224-0.362931-0.575431-0.619397-0.111638-0.256896-0.165948-0.79612-0.165948-1.6181v-4.65086h-1.01121v-1.05776h1.01121v-1.99655l1.36853-0.821551v2.8181h1.36897v1.05776h-1.36897v4.72888c0 0.391379 0.02328 0.643103 0.07284 0.75431 0.04655 0.111638 0.124569 0.199569 0.23319 0.267242 0.109052 0.06466 0.264655 0.09828 0.46681 0.09828 0.150431 0 0.35-0.0181 0.596121-0.05431"/>
                    <path d="m38.7246 17.8004c0-1.49095 0.415086-2.59526 1.24698-3.31336 0.692241-0.596552 1.54009-0.894397 2.53836-0.894397 1.1069 0 2.01466 0.362931 2.71983 1.08879 0.702587 0.723275 1.05517 1.72672 1.05517 3.00474 0 1.03707-0.155604 1.85129-0.466811 2.44483-0.311206 0.593966-0.764655 1.05517-1.36121 1.38448-0.593535 0.329311-1.2444 0.492673-1.94698 0.492673-1.13017 0-2.0431-0.360345-2.74052-1.08362-0.697414-0.723276-1.04483-1.76552-1.04483-3.12414zm1.4 0.0026c0 1.0319 0.225862 1.80431 0.676724 2.31509 0.453879 0.513362 1.02155 0.770259 1.70862 0.770259 0.67931 0 1.2444-0.256897 1.69828-0.772845 0.450862-0.515948 0.676724-1.30129 0.676724-2.35646 0-0.99569-0.228448-1.75-0.681897-2.26078-0.453879-0.513362-1.01896-0.770259-1.6931-0.770259-0.687069 0-1.25474 0.254311-1.70862 0.764655-0.450862 0.510776-0.676724 1.28104-0.676724 2.31034z"/>
                </g>
            </g>
        </g>
    </g>
</svg>
