<?xml version="1.0" encoding="UTF-8"?>
<svg width="55.9" height="24" version="1.1" viewBox="0 0 55.9 24" xmlns="http://www.w3.org/2000/svg" xmlns:xlink="http://www.w3.org/1999/xlink">
    <defs>
        <polygon id="path-1" points="46.0919 19.8374 0 19.8374 0 0.0179024 46.0919 0.0179024"/>
        <polygon id="path-3" points="46.0919 0.162602 0 0.162602 0 19.9821 46.0919 19.9821"/>
    </defs>
    <g transform="matrix(1.21093 0 0 1.21093 -121.093 -192.735)" fill="none" fill-rule="evenodd">
        <g transform="translate(100,159)">
            <g transform="translate(0 .144715)">
                <mask id="mask-2" fill="#ffffff">
                    <use xlink:href="#path-1"/>
                </mask>
                <path d="m0 3.57351c0-1.96374 1.59984-3.55561 3.5735-3.55561h38.9447c1.97366 0 3.57366 1.59187 3.57366 3.55561v12.7083c0 1.96374-1.6 3.55561-3.57366 3.55561h-38.9447c-1.97366 0-3.5735-1.59187-3.5735-3.55561z" fill="#003a7d" mask="url(#mask-2)"/>
            </g>
            <path d="m1.46738 3.84021v12.4663c0 1.22732 1 2.22228 2.2335 2.22228h20.4028v-16.9109h-20.4028c-1.2335 0-2.2335 0.994959-2.2335 2.22228" fill="#fff"/>
            <path d="m5.67102 10.0206c0-0.679024 0.334797-1.24325 0.97561-1.24325 0.774634 0 1.09967 0.621626 1.09967 1.17626 0 0.765203-0.487642 1.28163-1.09967 1.28163-0.516585 0-0.97561-0.44-0.97561-1.21463zm3.73951-2.44829h-1.55902v0.898862h-0.0190244c-0.363415-0.612033-0.956423-1.01366-1.69285-1.01366-1.54943 0-2.24748 1.10943-2.24748 2.59171 0 1.47301 0.851057 2.50585 2.21886 2.50585 0.688618 0 1.26244-0.267804 1.67366-0.851219h0.019024v0.267805c0 0.975609-0.535447 1.44423-1.53008 1.44423-0.717398 0-1.1574-0.153008-1.68341-0.411219l-0.086016 1.35805c0.401626 0.143414 1.08081 0.315609 1.90325 0.315609 2.00846 0 3.00309-0.66 3.00309-2.70667z" fill="#ed1c24"/>
            <mask id="mask-4" fill="#ffffff">
                <use xlink:href="#path-3"/>
            </mask>
            <g fill="#ed1c24">
                <path d="m10.5985 6.75919h1.72146v-1.26244h-1.72146zm-1.63e-4 5.79577h1.72146v-4.98276h-1.72146z" mask="url(#mask-4)"/>
                <path d="m17.1133 7.5148c-0.172195-0.028618-0.382601-0.057398-0.583414-0.057398-0.746017 0-1.17642 0.401789-1.47285 1.03301h-0.01902v-0.918212h-1.56862v4.98276h1.72163v-2.10406c0-0.975447 0.449431-1.55886 1.25284-1.55886 0.200813 0 0.392033 0 0.583415 0.057398z" mask="url(#mask-4)"/>
                <path d="m20.0774 11.4647c-0.793822 0-1.11902-0.659837-1.11902-1.39642 0-0.745854 0.325203-1.40585 1.11902-1.40585 0.793821 0 1.11902 0.66 1.11902 1.40585 0 0.736585-0.325203 1.39642-1.11902 1.39642m0 1.20504c1.64504 0 2.89789-0.956423 2.89789-2.60146 0-1.65447-1.25285-2.61089-2.89789-2.61089-1.64504 0-2.89789 0.956423-2.89789 2.61089 0 1.64504 1.25285 2.60146 2.89789 2.60146" mask="url(#mask-4)"/>
            </g>
            <g fill="#fff">
                <path d="m29.3757 10.011c0 0.793822-0.392032 1.33902-1.04244 1.33902-0.573821 0-1.05203-0.545203-1.05203-1.27203 0-0.746016 0.420813-1.30081 1.05203-1.30081 0.669431 0 1.04244 0.573821 1.04244 1.23382zm-3.81594 4.55236h1.72146v-2.7065h0.01902c0.325203 0.593008 0.97561 0.812846 1.57805 0.812846 1.48244 0 2.27626-1.22406 2.27626-2.69707 0-1.20488-0.755447-2.51528-2.13268-2.51528-0.784228 0-1.51122 0.31561-1.85545 1.01382h-0.01919v-0.899024h-1.58748z" mask="url(#mask-4)"/>
                <path d="m33.5053 10.977c0-0.478211 0.459024-0.66 1.04244-0.66 0.258211 0 0.506992 0.01919 0.726829 0.02878 0 0.583415-0.411219 1.17642-1.06163 1.17642-0.401626 0-0.707642-0.200975-0.707642-0.545203zm3.47171 1.57805c-0.07659-0.392195-0.09561-0.784228-0.09561-1.17642v-1.85545c0-1.52065-1.09984-2.06569-2.37187-2.06569-0.736423 0-1.37724 0.105203-1.98927 0.353821l0.02862 1.16683c0.478212-0.267805 1.03285-0.373008 1.58764-0.373008 0.621627 0 1.12862 0.181626 1.13805 0.86065-0.219837-0.038211-0.526016-0.066829-0.803414-0.066829-0.918049 0-2.57268 0.181626-2.57268 1.70244 0 1.08065 0.88 1.56846 1.86504 1.56846 0.707643 0 1.18585-0.277398 1.57805-0.899024h0.01919c0 0.258211 0.02862 0.516423 0.03821 0.784228z" mask="url(#mask-4)"/>
                <path d="m37.7507 14.5635c0.353821 0.07642 0.707642 0.114797 1.07106 0.114797 1.57805 0 1.95106-1.21463 2.43886-2.46748l1.82667-4.63854h-1.72146l-1.02325 3.25171h-0.01919l-1.07122-3.25171h-1.85545l2.01805 5.09756c-0.12439 0.44-0.449431 0.688618-0.870244 0.688618-0.239187 0-0.449593-0.02878-0.679024-0.105203z" mask="url(#mask-4)"/>
            </g>
        </g>
    </g>
</svg>
