<?xml version="1.0" encoding="UTF-8"?>
<svg width="20.3" height="24" version="1.1" viewBox="0 0 20.3 24" xmlns="http://www.w3.org/2000/svg">
    <g transform="scale(.667561)" fill="none" fill-rule="evenodd">
        <g transform="translate(-434,-132)">
            <g transform="translate(434,132)">
                <path d="m15.032 28.9124h12.4378c2.84005 0 2.86841-3.01858 2.57918-4.50888-0.158055-1.00159-1.86016-0.993206-2.04756 0v1.16285c0 0.531123-0.434959 0.966082-0.966329 0.966082h-23.8461c-0.53137 0-0.966082-0.434959-0.966082-0.966082v-1.16285c-0.187397-0.993206-1.88951-1.00159-2.04756 0-0.288986 1.4903-0.261123 4.50888 2.57918 4.50888h11.3176z" fill="#1866ab"/>
                <path d="m6.23861 0h19.1781c1.34754 0 2.44973 1.16655 2.44973 2.59249v1.23904c0 1.75167-2.37304 1.74501-2.37304 0.011836v-0.67685c0-0.430521-0.352109-0.78263-0.782876-0.78263h-19.2173c-0.430521 0-0.78263 0.35211-0.78263 0.78263v0.663041c0 1.74205-2.26159 1.72973-2.26159 0.037726v-1.27479c0-1.42595 1.10244-2.59249 2.44973-2.59249z" fill="#1866ab"/>
                <g fill="#373535">
                    <path d="m27.3825 14.2422c1.3283 0.624822 2.24532 1.91466 2.24532 3.39559 0 2.088-1.82293 3.79627-4.05148 3.79627h-6.24551c-0.584137 0-1.06225-0.447781-1.06225-0.995178v-11.8827c0-0.573041 0.46948-1.04227 1.04351-1.04227h5.202c2.18984 0 3.98145 1.78989 3.98145 3.97726 0 1.06496-0.424849 2.03523-1.11304 2.75104m-4.66151-0.967808h1.98296v-0.02195c0.902959-0.138576 1.60027-0.923671 1.60027-1.86386 0-1.0371-0.848712-1.88581-1.88581-1.88581h-3.99427v9.86055h5.06515c1.07112 0 1.94745-0.876328 1.94745-1.94745 0-1.07112-0.876329-1.94745-1.94745-1.94745h-0.785342v-0.0047h-1.98296c-0.602137 0-1.09479-0.492411-1.09479-1.09455s0.492657-1.09479 1.09479-1.09479"/>
                    <path d="m17.2763 20.2472c0.07323 0.688192-0.425589 1.30562-1.11378 1.3786-0.688192 0.07323-1.30562-0.425342-1.3786-1.11378l-1.02699-9.44975-3.63748 9.23992-0.0037 0.0086-2.46e-4 9.86e-4v2.47e-4l-0.01011 0.02441-0.0081 0.01923-2e-3 0.0047-0.0086 0.01923-0.0054 0.01159-0.0086 0.018-0.0042 0.0084-0.0096 0.01899-0.0035 0.0067c-0.067068 0.126493-0.15337 0.237698-0.254219 0.33115l-0.0037 0.0032-0.01874 0.01701c-0.065589 0.05819-0.138082 0.109479-0.21674 0.153616l-0.00542 3e-3 -0.023671 0.01282-9.863e-4 4.93e-4 -0.021945 0.01134-0.01011 0.0052-0.014055 0.0067-0.015041 0.0069-0.013069 0.0062-0.015534 0.0067-0.013562 0.0057-0.012822 0.0054-0.011589 0.0044-0.00666 0.0027-0.010603 0.0039-0.016521 0.0062-0.00962 0.0032c-0.121315 0.04241-0.244849 0.0651-0.367397 0.06953l-0.014794 4.93e-4 -0.017753 2.47e-4h-0.02589l-0.01726-2.47e-4 -0.015781-4.93e-4c-0.1369-0.005073-0.275476-0.032936-0.410352-0.085703l-0.016767-0.0067-0.00419-2e-3 -0.016767-0.0067-0.016274-0.0072-0.013069-0.0062-0.014055-0.0064-0.015041-0.0072-0.00863-0.0044-0.022932-0.01159-0.00222-0.0015-0.019479-0.0106-0.011096-0.0059c-0.068795-0.03871-0.132658-0.08334-0.191589-0.132905l-0.00468-0.0042c-0.014055-0.01208-0.027863-0.02392-0.041425-0.03649l-7.397e-4 -9.87e-4c-0.010603-0.0099-0.021206-0.01997-0.031315-0.03008-0.01011-0.01036-0.020466-0.02071-0.030329-0.03131l-7.397e-4 -9.86e-4c-0.012575-0.01356-0.024658-0.02712-0.03674-0.04143l-0.00419-0.0047c-0.049562-0.05893-0.093945-0.122794-0.132658-0.191589l-0.00616-0.01085-0.010849-0.01973-9.863e-4 -0.0025-0.011836-0.02244-0.00419-0.0089-0.00715-0.01479-0.00666-0.0143-0.00592-0.01307-0.00715-0.01627-0.00715-0.01652-0.00148-0.0042-0.0069-0.01677-3.64142-9.24953-1.02699 9.44975c-0.0732465 0.688723-0.690425 1.1873-1.37862 1.11406-0.688438-0.072986-1.18701-0.690411-1.11378-1.3786l1.21068-11.141 4.931e-4 -0.0029589 4.932e-4 -0.0046849-4.932e-4 -2.466e-4c0.014548-0.129699 0.0419178-0.258904 0.0813699-0.385644 0.0382191-0.123041 0.0892603-0.244356 0.152384-0.362712 0.309206-0.580685 0.878055-0.988027 1.55688-1.08197l0.00247-4.931e-4c0.022685-0.00296 0.045616-0.00542 0.068301-0.0074 0.106274-0.011096 0.212055-0.014301 0.31611-0.00937l0.00493 2.466e-4v-2.466e-4c0.13537 0.00641 0.26211 0.023425 0.378986 0.050548 0.647507 0.151151 1.19762 0.601644 1.45652 1.25926l3.09945 7.87241 3.09921-7.87241c0.258904-0.657616 0.809013-1.10811 1.45652-1.25926 0.11663-0.027123 0.24337-0.044137 0.378987-0.050548v2.466e-4l0.0049-2.466e-4c0.104301-0.00493 0.210329-0.00173 0.316849 0.00937 0.02244 0.00197 0.04488 0.00444 0.06756 0.0074l0.0025 4.931e-4c0.678822 0.093945 1.24792 0.501288 1.55712 1.08197 0.06288 0.118356 0.114165 0.239671 0.152137 0.362712 0.03945 0.12674 0.06682 0.255699 0.08137 0.385644l-4.93e-4 2.466e-4 4.93e-4 0.00468 4.93e-4 0.00296z"/>
                    <path d="m28.8133 32.8943v0.0012h-0.001233v-0.0012c-0.246821 0-0.471452 0.09715-0.633698 0.252987-0.159534 0.153123-0.258411 0.362712-0.258658 0.591534h0.0015v0.625068h-0.0015c2.47e-4 0.228576 0.09912 0.437672 0.258165 0.590795 0.162739 0.156082 0.38737 0.253479 0.634685 0.253479v-0.0012h0.001233v0.0012c0.247068 0 0.471452-0.09715 0.633945-0.253479 0.159287-0.152877 0.258411-0.362219 0.258411-0.591288h-0.0012v-0.624822h0.0012c-2.47e-4 -0.228822-0.099124-0.438164-0.258165-0.591041-0.162739-0.156082-0.38737-0.253233-0.634685-0.253233zm-4.93e-4 -0.668712h4.93e-4v0.0015c0.427069 0 0.815918 0.168411 1.09775 0.438904 0.285041 0.274192 0.462082 0.653672 0.462329 1.0726h0.0012v0.624822h-0.0012c-2.47e-4 0.419178-0.177288 0.798904-0.462576 1.0731-0.281589 0.270493-0.670192 0.438658-1.09701 0.438904v0.0015h-0.001233v-0.0015c-0.427069 0-0.815918-0.168411-1.09775-0.439151-0.284794-0.273945-0.462082-0.653424-0.462328-1.07236h-0.0012v-0.625068h0.0012c2.46e-4 -0.418932 0.177534-0.798904 0.462821-1.07285 0.281589-0.270493 0.670192-0.438657 1.09677-0.438904v-0.0015z"/>
                    <path d="m26.8754 35.2069c0.184932 0 0.334849 0.149918 0.334849 0.334849 0 0.184932-0.149917 0.335096-0.334849 0.335096h-0.987287v-0.0015c-0.363699 0-0.69411-0.148932-0.933288-0.38811-0.238192-0.238192-0.386137-0.56811-0.38663-0.931562h-0.0012v-1.00874h0.0012c2.46e-4 -0.363698 0.148685-0.694356 0.388109-0.933534 0.238439-0.237945 0.56811-0.386137 0.931315-0.386383v-0.0015h0.987781c0.184932 0 0.334849 0.150165 0.334849 0.335096 0 0.184932-0.149917 0.334849-0.334849 0.334849h-0.987781v-0.0012c-0.178274 0-0.341507 0.07397-0.460356 0.192821-0.118356 0.118357-0.191589 0.281096-0.191589 0.459863h9.86e-4v1.00874h-9.86e-4c0 0.178521 0.07373 0.341754 0.192822 0.460603 0.11811 0.11811 0.280849 0.191836 0.459617 0.191836v-0.0012h4.93e-4z"/>
                    <path d="m21.6444 35.5418c0 0.184931-0.149918 0.334849-0.33485 0.334849-0.184931 0-0.335096-0.149918-0.335096-0.334849v-2.77049c0-0.01923 0.0015-0.03847 0.0047-0.05671 0.0044-0.03773 0.01356-0.07397 0.02638-0.108493l4.93e-4 -9.87e-4 -4.93e-4 -2.46e-4c0.0069-0.01849 0.01652-0.03847 0.02762-0.05992l7.4e-4 -9.86e-4 -7.4e-4 -2.47e-4c0.05597-0.101589 0.146959-0.180493 0.261617-0.219945 0.01529-0.0049 0.03057-0.0094 0.04611-0.01233 0.01184-0.0027 0.02367-0.0052 0.03551-0.0069l0.0027-4.93e-4v-9.86e-4c0.02244-0.0032 0.04932-0.0047 0.08014-0.0039h0.008647c0.137342 0.0054 0.265561 0.06904 0.354082 0.181726l1.78249 2.27318v-2.19353c0-0.184931 0.150164-0.334849 0.335096-0.334849 0.184931 0 0.334849 0.149918 0.334849 0.334849v2.75721c0 0.145726-0.06559 0.277397-0.174822 0.366657-0.02071 0.01677-0.04364 0.03255-0.0683 0.04636-0.01332 0.0074-0.02737 0.01405-0.04167 0.02047l-0.0037 0.0015-7.4e-4 2.46e-4c-0.0089 0.0042-0.018 0.0081-0.02762 0.01134l-9.86e-4 4.93e-4v-4.93e-4h-2.47e-4l-2.47e-4 -2.47e-4 -0.0022 7.4e-4c-0.121561 0.04192-0.249287 0.03304-0.359014-0.02022-0.01455-0.0062-0.02885-0.01356-0.04315-0.02244-0.02268-0.01381-0.04512-0.03082-0.06633-0.04956-0.01332-0.01184-0.02762-0.02663-0.04266-0.04463l-0.0111-0.01282-7.4e-4 -7.4e-4 2.46e-4 -2.47e-4 -0.0042-0.0052-1.78249-2.27268z"/>
                    <path d="m20.6191 35.5011c0.02244 0.183452-0.108247 0.35063-0.291945 0.373069-0.183452 0.02244-0.350137-0.108494-0.372576-0.291946l-0.117863-0.945863h-1.16063c-0.184931 0-0.334849-0.149917-0.334849-0.334849 0-0.184931 0.149918-0.335096 0.334849-0.335096h1.07729l-0.03057-0.245589-4.94e-4 -0.0027c-9.86e-4 -0.0079-0.0017-0.01578-2e-3 -0.02342-0.0086-0.05622-0.02121-0.113425-0.03871-0.171123-0.01948-0.0646-0.04266-0.124027-0.06879-0.176548-0.132904-0.265562-0.373315-0.45148-0.677343-0.45148h-0.0032v-0.0012c-0.05795 0-0.114658 0.0072-0.168411 0.02022-0.05055 0.01208-0.100603 0.03107-0.149671 0.05597-0.256932 0.130932-0.429041 0.416959-0.466028 0.746384l-0.209589 1.8614c-0.02022 0.183699-0.185671 0.31611-0.369123 0.295891-0.183205-0.02022-0.315616-0.185672-0.295397-0.369124l0.209342-1.8614c0.06189-0.549616 0.366904-1.03562 0.827507-1.26986 0.09049-0.04586 0.18937-0.08285 0.295891-0.108246 0.103068-0.02515 0.211808-0.03822 0.325479-0.03847v-0.0015h0.0032c0.580686 0 1.03167 0.339288 1.27381 0.823069 0.0466 0.09321 0.08482 0.188137 0.113424 0.284054 0.02564 0.08556 0.04512 0.176795 0.05869 0.272713 0.0025 0.01036 0.0044 0.02071 0.0057 0.03131l4.93e-4 0.0027z"/>
                    <path d="m14.6994 32.8954v2.3114h1.29452v0.0012c0.114904 0 0.220191-0.04784 0.297369-0.125014 0.07644-0.07619 0.123781-0.181479 0.123781-0.29663h-9.86e-4v-0.001479h9.86e-4c0-0.108-0.04241-0.20811-0.111945-0.283562l-0.01282-0.01233c-0.07718-0.07742-0.182466-0.12526-0.29663-0.12526v0.0012h-0.446055c-0.184685 0-0.334849-0.150411-0.334849-0.334849 0-0.184439 0.150164-0.335096 0.334849-0.335096h0.152388c0.0969-0.0074 0.185425-0.05104 0.252246-0.11737l4.94e-4 4.93e-4 4.93e-4 -4.93e-4c0.07249-0.07274 0.117863-0.172603 0.117863-0.282082h-0.0012v-0.001233h0.0012c0-0.108987-0.04562-0.209096-0.11885-0.282329-0.07249-0.07249-0.172602-0.117863-0.281835-0.117863v0.0012h-4.93e-4zm-0.669698 1.13474v-1.45529c0-0.04734 0.0099-0.09247 0.02737-0.133151 0.018-0.04364 0.04463-0.08285 0.07767-0.115151l0.0042-0.0037-2.46e-4 -2.47e-4c0.05671-0.05425 0.132164-0.09049 0.219945-0.09567 0.0067-4.93e-4 0.01332-9.86e-4 0.01973-7.4e-4v-7.39e-4h1.29206v0.0015c0.294411 0 0.561945 0.120329 0.75526 0.313891 0.192822 0.192821 0.312411 0.459369 0.312658 0.753534h0.0015v0.001233h-0.0015c0 0.208602-0.06066 0.403397-0.164466 0.568109 0.06879 0.04364 0.132657 0.09444 0.190109 0.151644 0.0072 0.0072 0.01381 0.01479 0.02047 0.02244 0.184192 0.194548 0.297863 0.457891 0.29811 0.747124h0.0012v0.001479h-0.0012c0 0.300082-0.122795 0.572795-0.320302 0.770301-0.196274 0.196274-0.468246 0.318329-0.768328 0.318576v0.0015h-1.62937c-0.184932 0-0.334849-0.150164-0.334849-0.335096z"/>
                    <path d="m13.7485 35.5418c0 0.184931-0.149918 0.334849-0.334849 0.334849-0.184932 0-0.33485-0.149918-0.33485-0.334849v-2.98134c0-0.184931 0.149918-0.334849 0.33485-0.334849 0.184931 0 0.334849 0.149918 0.334849 0.334849z"/>
                    <path d="m11.6595 35.5418c0 0.184931-0.149918 0.334849-0.334849 0.334849s-0.334849-0.149918-0.334849-0.334849v-2.64625h-0.953014c-0.184932 0-0.334849-0.150164-0.334849-0.335096 0-0.184931 0.149918-0.334849 0.334849-0.334849h2.57573c0.184931 0 0.334849 0.149918 0.334849 0.334849 0 0.184932-0.149918 0.335096-0.334849 0.335096h-0.953014z"/>
                    <path d="m10.1963 35.2069c0.184931 0 0.334849 0.149918 0.334849 0.334849 0 0.184932-0.149918 0.335096-0.334849 0.335096h-0.924904v-0.0015c-0.346685 0-0.661562-0.141781-0.889644-0.369617-0.226849-0.227342-0.36789-0.541233-0.368137-0.887671h-0.00123v-2.05742c0-0.184931 0.149918-0.335096 0.334849-0.335096s0.334849 0.150165 0.334849 0.335096v2.05742h-0.00123c0 0.16126 0.066822 0.308712 0.174575 0.416466 0.107014 0.106767 0.254219 0.173589 0.415973 0.173589v-0.0012h2.466e-4z"/>
                    <path d="m7.03115 32.5605c0-0.184932 0.149918-0.33485 0.334849-0.33485s0.335096 0.149918 0.335096 0.33485v1.81184h-0.00148c0 0.414-0.169397 0.790274-0.441863 1.06274-0.271479 0.271479-0.647014 0.43989-1.06077 0.440137v0.0015h-0.0012329v-0.0015c-0.414 0-0.790274-0.169151-1.06274-0.441863-0.27148-0.27148-0.43989-0.647014-0.440137-1.06052h-0.00148v-1.81233c0-0.184932 0.150164-0.33485 0.335096-0.33485s0.334849 0.149918 0.334849 0.33485v1.81233h-0.00123c0 0.228576 0.094438 0.437425 0.246575 0.589562 0.151397 0.151151 0.36 0.245589 0.589068 0.245589v-0.0012h0.0012329v0.0012c0.228822 0 0.437918-0.09444 0.589808-0.246575 0.151397-0.151398 0.245589-0.36 0.245589-0.589069h-0.00123v-4.93e-4z"/>
                    <path d="m4.5672 35.5026c0.021699 0.183452-0.109726 0.34989-0.292932 0.371589-0.183699 0.021452-0.350137-0.10948-0.371836-0.293178l-0.287014-2.41175-1.02329 2.3728c-0.072986 0.16989-0.269754 0.248301-0.439397 0.175315-0.08211-0.03501-0.142767-0.09937-0.175315-0.175315l-1.02329-2.3728-0.28726 2.41175c-0.0216986 0.183698-0.188137 0.31463-0.371589 0.293178-0.183452-0.021699-0.31463-0.188137-0.292932-0.371589l0.333123-2.80036c0.0216986-0.182959 0.133151-0.333124 0.292685-0.41548 0.0209589-0.0111 0.0429041-0.02071 0.0650959-0.0291 0.00863-0.0035 0.0170137-0.0064 0.0258904-0.0091 0.0283562-0.0089 0.0613973-0.01627 0.0986301-0.0212v2.46e-4l0.002712-2.46e-4 0.002959-4.94e-4c0.174822-0.02219 0.347178 0.03427 0.467753 0.147699 0.024164 0.02293 0.047096 0.04931 0.068301 0.07866 0.014301 0.02022 0.027616 0.04118 0.038959 0.06288 0.00715 0.01208 0.013315 0.02416 0.01874 0.03723l0.867452 2.01132 0.867452-2.01132c0.071753-0.165945 0.219205-0.27937 0.391808-0.317342 0.033041-0.0072 0.066082-0.01208 0.098383-0.01356 0.024904-0.0012 0.049562-0.0012 0.072986 2.47e-4l0.00222 2.46e-4c0.00814 4.93e-4 0.016274 0.0012 0.024658 0.0022l0.00271 4.94e-4 -2.466e-4 9.86e-4 0.00148 2.46e-4c0.179014 0.02269 0.331397 0.123288 0.416959 0.267535h-2.466e-4c0.018 0.03008 0.032548 0.06214 0.044384 0.09542 0.00715 0.02096 0.013562 0.04266 0.018247 0.06559 0.00345 0.0143 0.00616 0.02885 0.00789 0.04389l4.932e-4 3e-3z"/>
                </g>
            </g>
        </g>
    </g>
</svg>
