<?xml version="1.0" encoding="UTF-8"?>
<svg width="76.3636px" height="24px" version="1.1" viewBox="0 0 76.3636 24" xmlns="http://www.w3.org/2000/svg" xmlns:xlink="http://www.w3.org/1999/xlink">
    <defs>
        <polygon id="path-1" points="0.0103142 0.0376095 8.42702 0.0376095 8.42702 10.4349 0.0103142 10.4349"/>
        <polygon id="path-3" points="0.0163297 0.144733 4.23051 0.144733 4.23051 4.4 0.0163297 4.4"/>
    </defs>
    <g transform="scale(1.09141)" fill="none" fill-rule="evenodd">
        <g id="SPB_&amp;_AltPay_NewAssets" transform="translate(-100,-159)">
            <g transform="translate(100,159)">
                <g fill="#020202">
                    <path d="m57.953 6.77373c0.07036-0.018333 0.144171-0.017417 0.217435-0.018333 0.653757 0.00128 1.30679-3.666e-4 1.96054 9.167e-4 0.166296 0.00275 0.346555 0.00385 0.490182 0.1023 0.100647 0.073883 0.120958 0.209917 0.121684 0.327433 0 3.17662-3.63e-4 6.35305 0 9.5293-7.26e-4 0.134017-0.01106 0.28325-0.106814 0.386467-0.101735 0.09735-0.248445 0.114217-0.381917 0.114767-0.708161-5.5e-4 -1.41668 0.0011-2.12466-7.34e-4 -0.124586-0.0048-0.265855-0.0016-0.363964-0.09093-0.08723-0.11825-0.07508-0.275-0.07979-0.414333-3.62e-4 -3.17423 0-6.34865 0-9.52343-0.01414-0.178567 0.09067-0.365017 0.267306-0.413417"/>
                    <path d="m20.3658 6.94399c0.258964-0.0528 0.525544-0.038133 0.788679-0.04015 0.588652 0.010817 1.17622-0.00229 1.76541-3.666e-4 0.45899 0.014667 0.918161-0.010267 1.37751 0.00403 0.221788 0.021083 0.443938-0.0187 0.66627 0.00513 0.431606 0.0044 0.862668-0.00165 1.29409-0.00953 0.431425 0.00587 0.862849-0.00917 1.29391 0.00953 0.350906-0.00678 0.704896-0.030617 1.05344 0.023467 0.142539 0.021817 0.279638 0.137317 0.274016 0.292783 0.0047 0.607933-3.63e-4 1.2155 0.0027 1.82343-0.0045 0.086533 0.0094 0.189383-0.05531 0.25795-0.07526 0.077-0.189145 0.089283-0.290518 0.090933-0.707798 0.00275-1.41578-0.00202-2.12321 0.00202-0.123679-0.00605-0.278006 0.05665-0.263679 0.20625-0.0053 2.36793-9.07e-4 4.73605-0.0025 7.10398-0.0058 0.136767-0.0194 0.296267-0.138005 0.384817-0.153601 0.1111-0.352176 0.11385-0.533524 0.117883-0.695285 7.33e-4 -1.39039 0-2.08567 3.67e-4 -0.170285-0.0044-0.348912 0.0059-0.508135-0.06545-0.137824-0.05683-0.172098-0.22385-0.171191-0.358417-9.07e-4 -2.3815 2e-3 -4.76245-0.0013-7.14395 0.01378-0.132917-0.09031-0.2475-0.22342-0.241083-0.692383-0.016317-1.3864 0.00348-2.07914-0.00953-0.147616 0.00623-0.300311-0.104867-0.287435-0.265467-0.0065-0.622417-0.0034-1.24465-0.0011-1.86688-0.0087-0.15235 0.100466-0.292417 0.248083-0.32175"/>
                    <path d="m53.4974 8.01104c0.445026-0.0694833 0.887513-0.157117 1.33399-0.216333 0.165933-0.030433 0.394612 0.019067 0.40785 0.2255 0.03228 0.544133 0.0049 1.09083 0.01469 1.63625 0.306114 0.00183 0.612591-0.00293 0.918886 0.00183 0.138731-0.0011 0.259508 0.098083 0.318446 0.220367 0.07091 0.149417 0.08777 0.319 0.08578 0.483267-0.0013 0.317533 0 0.634883-3.63e-4 0.952416-0.0034 0.11385-8e-3 0.240167-0.08124 0.333667-0.07091 0.07938-0.183524 0.0913-0.282902 0.09057-0.286166 0-0.572876-3.67e-4 -0.859041-3.67e-4 -7.26e-4 1.02337-0.0013 2.04692 5.44e-4 3.07028-0.0098 0.1342 0.08161 0.25685 0.201114 0.307634 0.169741 0.07535 0.359067 0.05793 0.539507 0.04547 0.08324 0.07205 0.103006 0.189384 0.134379 0.290217 0.09466 0.39875 0.144715 0.808317 0.164119 1.21825 0.0022 0.1496 0.01414 0.302317-0.0165 0.450083-0.201295 0.129434-0.454637 0.1408-0.682409 0.195984-0.815156 0.130166-1.7121 0.195983-2.4607-0.2222-0.601709-0.3278-0.953523-1.01273-0.966399-1.69217-0.01233-1.23493-0.0049-2.46987 0-3.70498-0.206554-0.0083-0.415647 0.01907-0.619481-0.01687-0.222695-0.06032-0.26114-0.324683-0.256244-0.52195 0.0031-0.363-0.0063-0.72655 0.0045-1.08937 0-0.182783 0.117513-0.3674 0.304663-0.396733 0.237928-0.031717 0.479663-0.00788 0.719223-0.015033 0.0031-0.334217-0.0016-0.66825 0.0018-1.00247-0.0025-0.1914 0.131658-0.35365 0.290156-0.442567 0.23829-0.140067 0.52101-0.1496 0.785596-0.20075"/>
                    <path d="m45.7866 9.81788c0.901296-0.413417 1.91086-0.4873 2.88795-0.45595 0.5143 0.030617 1.04148 0.03685 1.53365 0.2079 0.09811 0.0198 0.154145 0.109633 0.161217 0.206067 0.04262 0.407916-0.03282 0.8206-0.147798 1.21073-0.0622 0.17105-0.120233 0.373817-0.28816 0.467867-0.317721-0.0049-0.630726-0.07792-0.946451-0.110734-0.370674-0.0385-0.753679-0.09882-1.11982-0.0037-0.151606 0.02933-0.295958 0.219816-0.183342 0.361533 0.140726 0.148317 0.332772 0.231367 0.511399 0.324133 0.592824 0.275 1.19689 0.5544 1.69342 0.991467 0.319896 0.280867 0.594274 0.626083 0.746243 1.02978 0.105544 0.264184 0.14798 0.5489 0.162125 0.83215 0.0038 0.5247-0.100104 1.07195-0.414923 1.50077-0.396606 0.552933-1.06197 0.8239-1.70666 0.9405-0.88443 0.151617-1.78935 0.09882-2.6765-0.0015-0.547125-0.07865-1.10295-0.154733-1.62124-0.358416-0.0787-0.218167-0.08904-0.451917-0.108627-0.6809-0.01487-0.321567-0.01723-0.646067 0.04153-0.963234 0.02684-0.116966 0.05586-0.251533 0.161036-0.3234 0.07689-0.01833 0.153601 0.01705 0.229223 0.03208 0.563264 0.156016 1.14938 0.2156 1.73259 0.212666 0.301217-5e-3 0.622202 0.02163 0.900207-0.11825 0.154326-0.07132 0.214352-0.308183 0.06782-0.41855-0.223601-0.1925-0.513031-0.278483-0.775622-0.402783-0.428523-0.184433-0.858135-0.37895-1.23497-0.659083-0.381555-0.283067-0.704171-0.66605-0.851788-1.12622-0.178083-0.5599-0.173005-1.2045 0.120959-1.72443 0.248808-0.4455 0.674067-0.760284 1.12653-0.970567"/>
                    <path d="m31.1744 9.64922c0.663368-0.026583 1.328-0.00678 1.9921-0.01705 0.484015 0.00385 0.968393-0.0088 1.45241-0.00165 0.120596-0.00825 0.247357 0.081033 0.245 0.2112 0.0034 0.5588 0.0016 1.11815 7.25e-4 1.67732 4e-3 0.142083-0.09575 0.288933-0.243368 0.2981-0.436865 0.02145-0.884067 0.0051-1.30914 0.126683-0.266943 0.09313-0.539326 0.22935-0.705077 0.469334-0.134923 0.200383-0.168653 0.449716-0.167928 0.68695-3.63e-4 1.17663 0 2.35327-3.63e-4 3.5299-2e-3 0.153633-0.01687 0.321016-0.115518 0.44605-0.0914 0.1067-0.237383 0.142083-0.371943 0.140066-0.641787 3.67e-4 -1.28412 0.0013-1.92627-3.66e-4 -0.18171-0.0016-0.377565-0.05243-0.500881-0.195617-0.118057-0.138967-0.143627-0.331467-0.141632-0.508383 0.0011-1.74607-5.44e-4 -3.49177 7.25e-4 -5.23783-3.62e-4 -0.412316 0.09974-0.855616 0.407487-1.1473 0.371218-0.347233 0.895311-0.446783 1.38368-0.4774"/>
                    <path d="m36.1322 9.67501c0.105181-0.043267 0.220518-0.038867 0.332409-0.038133 0.61658 0.00275 1.23389-0.00202 1.85083 0.00238 0.305026 0.00953 0.636347 0.2365 0.645052 0.567967 0.0015 1.22852-3.63e-4 2.45758 7.25e-4 3.6861 0.0011 0.218717 0.04697 0.468783 0.229223 0.60885 0.243731 0.165917 0.630907 0.1122 0.789041-0.149967 0.07617-0.124666 0.105907-0.2739 0.108265-0.4191 0-1.21788-7.26e-4 -2.43595 3.62e-4 -3.65383 0.0044-0.16885 0.0027-0.359883 0.117513-0.496283 0.09104-0.113117 0.243006-0.143733 0.380829-0.14575 0.628187 0 1.25674 3.666e-4 1.88528 0 0.177721 0.00367 0.369223 0.039783 0.503057 0.167567 0.135467 0.132917 0.169741 0.333667 0.170467 0.516634-7.26e-4 1.56145-3.63e-4 3.12272 0 4.68435-0.0107 0.4774-0.08016 0.969466-0.315907 1.39095-0.201477 0.364283-0.543679 0.649183-0.942643 0.762666-0.306839 0.09845-0.631994 0.07388-0.948627 0.07627h-2.35479c-0.585389-0.01045-1.20251 0.06178-1.75018-0.195433-0.433963-0.188834-0.757487-0.583734-0.902202-1.03363-0.190052-0.538083-0.144533-1.11558-0.148886-1.67585 7.26e-4 -1.3354-0.0011-2.67117 0.0011-4.00657 0.0107-0.249517 0.09865-0.54725 0.349094-0.649184"/>
                </g>
                <g transform="translate(61.4767 9.5986)">
                    <mask id="mask-2" fill="#ffffff">
                        <use xlink:href="#path-1"/>
                    </mask>
                    <path d="m0.0657383 0.1661c0.0993782-0.109083 0.258057-0.1199 0.395881-0.12705 0.694378-7.3333e-4 1.38876 5.5e-4 2.08313-3.6667e-4 0.141995 0.0014667 0.292332-0.01595 0.42544 0.0491333 0.214715 0.1045 0.376839 0.30525 0.455725 0.531117 0.333679 0.949483 0.660648 1.9019 0.998135 2.85047 0.314275-0.7997 0.634896-1.5961 0.950803-2.39488 0.0903109-0.209917 0.155959-0.431383 0.268212-0.630667 0.127487-0.2079 0.334042-0.403883 0.590285-0.4048 0.588472 0 1.17731-0.0011 1.76614 5.5e-4 0.138912 0.0119167 0.312098 0.0157667 0.403497 0.141533 0.0462436 0.100833 0.0183161 0.220367-0.0201295 0.319917-1.29409 3.07505-2.58946 6.14937-3.88337 9.22442-0.116969 0.316433-0.339119 0.672283-0.703083 0.7073-0.571062 0.0011-1.14231 0.005133-1.71301-0.002017-0.142902-0.0088-0.341839-0.04015-0.3743-0.210467-0.0126943-0.11055 0.0364508-0.214316 0.0756218-0.313866 0.333679-0.796767 0.664275-1.59482 0.998135-2.39122 0.0194041-0.0452833 0.0359067-0.0949667 0.0094301-0.140983-0.908005-2.27022-1.81583-4.54062-2.72402-6.81083-0.0476943-0.123383-0.10101-0.284533-0.00253886-0.397283" fill="#020202" mask="url(#mask-2)"/>
                </g>
                <path d="m5.64392 6.89753c0.0192228-0.631033-0.0047151-1.26152 0.017772-1.89218 0.0402591-0.778983 0.361062-1.53743 0.881891-2.11145 0.513212-0.573467 1.22155-0.96525 1.97759-1.08625 0.858135-0.144833 1.76813 0.05885 2.48373 0.560267 0.892953 0.60885 1.46329 1.66632 1.48578 2.75532 2e-3 0.592167 0 1.18415 7.25e-4 1.77632-2.28262-0.00128-4.56487 0.00348-6.84749-0.00202m5.71497 3.37993c8e-3 0.09277-0.0923 0.13255-0.168471 0.13255-0.414378 0.01228-0.829663-0.0097-1.24386 0.01155-0.01614 0.07132-0.030648 0.14355-0.030104 0.217433 0.00181 1.12383-5.44e-4 2.24803 0.00109 3.37187-0.00326 0.124483 0.010881 0.252083-0.015777 0.3751-0.043886 0.114583-0.17899 0.131633-0.284534 0.134017-0.315181 0.0061-0.63 0-0.945181 0.0024-0.177176-0.0024-0.363238 0.0187-0.528446-0.06032-0.016865-0.0957-0.031736-0.192133-0.031736-0.2893 0.00199-1.12512-5.441e-4 -2.25042 0.00109-3.37553-0.00163-0.1122 0.0087-0.2266-0.011243-0.3377-0.08886-0.0814-0.225052-0.03447-0.33386-0.04767-0.332047-0.01375-0.670803 0.03813-0.997772-0.03685-0.028653-0.361533-0.010518-0.725817-0.012513-1.08808-0.016503-0.147583 0.153782-0.187 0.26658-0.1826 1.34868-0.0011 2.69754 0 4.04622-3.667e-4 0.107539-0.00165 0.269663 0.013933 0.286166 0.1496 0.01034 0.340817 6e-3 0.682917 0.0024 1.02392m6.5357-2.97202c-0.295959-0.298833-0.730829-0.392883-1.1356-0.405167-0.792487-0.00165-1.58534 3.666e-4 -2.37837-7.334e-4 0.0024-0.49885-0.0058-0.998067 0.0067-1.49692 0.01451-1.14125-0.352539-2.2814-1.02135-3.20045-0.710156-0.98395-1.7587-1.71362-2.92531-2.02198-0.845078-0.2277-1.74474-0.23925-2.59617-0.0361167-1.13377 0.267483-2.17035 0.928217-2.90173 1.84287-0.755674 0.932617-1.17912 2.12923-1.18855 3.33355v1.57942c-0.794119 7.333e-4 -1.58824-0.00165-2.38236 7.333e-4 -0.429067 0.0146667-0.90329 0.124667-1.1851 0.47905-0.195492 0.237233-0.215803 0.567967-0.159404 0.859467 0.577772 2.61085 1.15373 5.22243 1.7315 7.83328 0.080155 0.372717 0.288886 0.730217 0.617487 0.92895 0.272384 0.1727 0.601347 0.22385 0.918161 0.213034 3.88663-0.0011 7.77308-3.67e-4 11.6595-5.5e-4 0.370311 0.0042 0.75658-0.11 1.02425-0.378217 0.221062-0.209733 0.352176-0.49775 0.414379-0.793833 0.574689-2.6059 1.15192-5.21125 1.72733-7.81733 0.0729-0.319 0.01016-0.682-0.225414-0.91905" fill="#64cc07"/>
                <path d="m5.15798 17.6519c0.484741-0.08103 0.996684 0.01357 1.41868 0.26895 0.608782 0.3619 1.02026 1.04885 1.02806 1.76642 0.019948 0.473183-0.128031 0.949117-0.407487 1.32917-0.319171 0.4411-0.814067 0.748366-1.34795 0.835083-0.546943 0.09717-1.12907-0.04272-1.57881-0.37125-0.438497-0.319-0.750958-0.811617-0.843083-1.3508-0.101373-0.556783 0.029741-1.1528 0.357435-1.61205 0.319896-0.457967 0.825492-0.7766 1.37316-0.865517" fill="#64cc07"/>
                <g transform="translate(10.5181 17.4819)">
                    <mask id="mask-4" fill="#ffffff">
                        <use xlink:href="#path-3"/>
                    </mask>
                    <path d="m1.78172 0.16951c0.435233-0.0630667 0.892228-0.008617 1.28557 0.196533 0.522824 0.263083 0.929041 0.754233 1.085 1.32403 0.16285 0.584283 0.0698186 1.23897-0.264223 1.74552-0.308472 0.480883-0.817694 0.825367-1.37624 0.927117-0.548394 0.108533-1.13687-0.0231-1.59404-0.346683-0.451917-0.319-0.775259-0.8206-0.86829-1.37115-0.102461-0.565583 0.0353627-1.1704 0.374119-1.6324 0.321891-0.445317 0.819145-0.755517 1.35811-0.842967" fill="#64cc07" mask="url(#mask-4)"/>
                </g>
            </g>
        </g>
    </g>
</svg>
