<?xml version="1.0" encoding="UTF-8"?>
<svg width="36" height="24" version="1.1" viewBox="0 0 36 24" xmlns="http://www.w3.org/2000/svg">
    <g transform="scale(.857143)" fill="none" fill-rule="evenodd">
        <g id="SPB_&amp;_AltPay_NewAssets" transform="translate(-101,-159)">
            <g id="Sofort" transform="translate(101,159)">
                <path d="m2.625 28h36.75c1.44975 0 2.625-1.17525 2.625-2.625v-22.75c0-1.44975-1.17525-2.625-2.625-2.625h-36.75c-1.44975 0-2.625 1.17525-2.625 2.625v22.75c0 1.44975 1.17525 2.625 2.625 2.625z" fill="#eb6f93"/>
                <g fill="#fff">
                    <path d="m30.4617 24.9935c0.35 0 0.637-0.287 0.637-0.637s-0.287-0.637-0.637-0.637-0.637 0.287-0.637 0.637 0.287 0.637 0.637 0.637m-2.05581-1.785v-0.826c0.21 0.224 0.511 0.336 0.889 0.336v-0.91c-0.518-0.014-0.889-0.357-0.889-0.819v-0.532h-0.952v2.8c0 0.91 0.567 1.68 1.729 1.68h0.14v-0.896c-0.532 0.021-0.917-0.245-0.917-0.833m-2.42638-1.274v-0.385h-0.924v3.388h0.952v-1.547c0-0.56 0.329-0.875 0.903-0.875v-1.022c-0.434-0.014-0.742 0.133-0.931 0.441m-3.26681 2.198c0.49 0 0.875-0.385 0.875-0.889s-0.385-0.889-0.875-0.889-0.875 0.385-0.875 0.889 0.385 0.889 0.875 0.889m0 0.896c-1.008 0-1.827-0.805-1.827-1.785s0.819-1.785 1.827-1.785 1.827 0.805 1.827 1.785-0.819 1.785-1.827 1.785m-2.07681-4.095v-0.896h-0.14c-1.162 0-1.729 0.77-1.729 1.68v3.22h0.952v-1.414c0-0.469 0.364-0.805 0.889-0.819v-0.91c-0.378 0-0.679 0.112-0.889 0.336v-0.364c0-0.588 0.385-0.854 0.917-0.833m-4.18338 3.199c0.49 0 0.875-0.385 0.875-0.889s-0.385-0.889-0.875-0.889-0.875 0.385-0.875 0.889 0.385 0.889 0.875 0.889m0 0.896c-1.008 0-1.827-0.805-1.827-1.785s0.819-1.785 1.827-1.785 1.827 0.805 1.827 1.785-0.819 1.785-1.827 1.785m-3.84781 0c0.952 0 1.68-0.637 1.68-1.575 0-0.868-0.616-1.246-1.372-1.47-0.483-0.14-0.784-0.245-0.784-0.588 0-0.287 0.21-0.511 0.539-0.511 0.28 0 0.49 0.161 0.637 0.406l0.791-0.497c-0.245-0.546-0.798-0.826-1.4-0.826-0.952 0-1.554 0.686-1.554 1.477 0 0.63 0.378 1.12 1.316 1.393 0.511 0.147 0.833 0.245 0.833 0.651 0 0.378-0.273 0.616-0.672 0.616-0.427 0-0.749-0.273-0.945-0.525l-0.658 0.665c0.35 0.476 0.924 0.784 1.589 0.784"/>
                    <path d="m19.4911 13.0137c0.296625 0.291813 0.30275 0.767375 0.014 1.06662l-0.05775 0.06081c-0.28875 0.29575-0.7665 0.302751-1.06706 0.01356l-1.67956-1.66425c-0.462437-0.464187-0.528937-1.03644-0.2345-1.33875l0.05906-0.06169c0.242375-0.249813 0.637875-0.276063 0.9135-0.05906 0.13125 0.10325 0.321125 0.0805 0.424375-0.05031 0.10325-0.13125 0.08094-0.321125-0.05031-0.424375-0.519312-0.408188-1.26306-0.35875-1.72331 0.115062l-0.05906 0.06169c-0.545125 0.560001-0.435312 1.50369 0.24325 2.18488l1.68394 1.66862c0.542937 0.522812 1.40131 0.509687 1.92456-0.02581l0.0595-0.06256c0.517563-0.536375 0.506188-1.39125-0.02669-1.91494-0.119-0.116812-0.310188-0.1155-0.427438 0.0035-0.116812 0.119-0.1155 0.310188 0.0035 0.427"/>
                    <path d="m18.4858 3.99105 0.687312 5.65381c0.02013 0.165375 0.171063 0.2835 0.336438 0.263375 0.165812-0.020125 0.283937-0.170625 0.263812-0.336438l-0.689499-5.67131-7e-3 -0.03675c-0.117687-0.469875 0.175-0.9975 0.564376-1.08019 0.218312-0.046813 0.446249-0.00394 0.632624 0.119 0.186375 0.122938 0.315438 0.315438 0.35875 0.534188l1.197 5.11481c0.03806 0.162312 0.200375 0.262938 0.363125 0.225312 0.162312-0.0380625 0.263374-0.200812 0.225312-0.363125l-1.19481-5.10388c-0.07175-0.3675-0.294874-0.699562-0.616437-0.911312-0.321563-0.212188-0.714875-0.286125-1.09156-0.205625-0.732812 0.15575-1.21406 1.01456-1.02944 1.79812"/>
                    <path d="m24.8039 10.6347 1.35931-6.77731c0.157937-0.729312-0.276062-1.46169-0.996188-1.67563-0.80675-0.203875-1.61481 0.270813-1.82569 1.06225l-1.505 5.15681c-0.04637 0.160125 0.0455 0.327687 0.205625 0.3745 0.160125 0.046812 0.328125-0.045063 0.374938-0.205188l1.50675-5.16381c0.127312-0.478625 0.609437-0.762125 1.08325-0.64225 0.405124 0.120313 0.656687 0.544688 0.564812 0.970375l-1.36062 6.78169c-0.03281 0.163625 0.0735 0.322437 0.237125 0.35525 0.163625 0.03281 0.322875-0.07306 0.355687-0.236688"/>
                    <path d="m21.3803 17.164c-2.15469 0-3.95456-1.58069-3.95456-3.82681 0-0.166688-0.135187-0.301875-0.302312-0.301875-0.166688 0-0.302313 0.135187-0.302313 0.301875 0 2.59831 2.08688 4.431 4.55919 4.431 0.167125 0 0.302312-0.135188 0.302312-0.302313 0-0.166687-0.135187-0.301875-0.302312-0.301875"/>
                    <path d="m20.3143 11.8812c-0.04681 0.169313-0.15225 0.316751-0.297062 0.416063l-0.06475 0.04288c-0.347375 0.23362-0.81725 0.143058-1.05219-0.20213l-1.32169-1.96656c-0.3605-0.546876-0.31325-1.12263 0.03369-1.36063l0.06475-0.042875c0.444935-0.257688 0.823372-0.062125 1.21231 0.503562l1.10469 1.645c0.09319 0.138688 0.280875 0.175438 0.419563 0.08269 0.138687-0.09319 0.175437-0.280875 0.08225-0.419125l-1.10644-1.64763c-0.546875-0.795812-1.22412-1.14581-2.03175-0.676812l-0.084 0.055125c-0.649687 0.445375-0.727125 1.393-0.198187 2.19538l1.32388 1.97006c0.423062 0.621687 1.267 0.784437 1.88956 0.36575l0.06694-0.04462c0.265562-0.182 0.455875-0.448438 0.54075-0.754688 0.04462-0.160562-0.04944-0.32725-0.210438-0.371875-0.160562-0.04419-0.32725 0.04988-0.371875 0.210437"/>
                    <path d="m22.3156 12.8815c-0.627812 0.350438-1.0185 1.01062-1.06706 2.009-0.0079 0.166688 0.12075 0.308438 0.287437 0.316313 0.166688 0.0083 0.308438-0.120313 0.316313-0.287 0.04419-0.904313 0.3955-1.39212 0.96425-1.60606 0.3045-0.114625 0.635687-0.137375 0.927062-0.106312 0.03937 0.0039 0.06519 0.0079 0.07569 0.0096 0.389375 0.07263 0.5075-0.505313 0.121187-0.5915l-2.324-0.518875c-1.08806-0.2975-1.25212-0.7-1.05044-1.37069 0.08662-0.292687 0.265562-0.44275 0.535062-0.50225 0.177625-0.03981 0.377563-0.03456 0.567438-0.0013 0.05513 0.0096 0.09362 0.01838 0.110687 0.02362l3.528 0.823375c0.02319 0.0044 0.03981 0.0088 0.06869 0.02187 0.05819 0.02625 0.119 0.06869 0.1785 0.132125 0.23625 0.252437 0.366625 0.728875 0.300562 1.51112-0.230125 2.74312-1.50894 4.44588-4.54038 4.41919-0.166687-0.0013-0.303187 0.132563-0.3045 0.299688-0.0018 0.166687 0.132563 0.303187 0.29925 0.3045 3.40681 0.02975 4.89475-1.95125 5.14806-4.97262 0.07963-0.940625-0.09713-1.58506-0.462-1.97444-0.200813-0.214812-0.413-0.311062-0.576188-0.334687l-3.48775-0.814625c-0.02188-0.00656-0.08138-0.020563-0.158375-0.034125-0.261625-0.045938-0.536812-0.0525-0.80325 0.00656-0.473375 0.105-0.830375 0.405125-0.983062 0.919188-0.290938 0.968187 0.01969 1.72944 1.484 2.12975z"/>
                </g>
            </g>
        </g>
    </g>
</svg>
