<?xml version="1.0" encoding="UTF-8"?>
<svg width="39" height="24" version="1.1" viewBox="0 0 39 24" xmlns="http://www.w3.org/2000/svg" xmlns:xlink="http://www.w3.org/1999/xlink">
    <defs>
        <polygon id="path-1" points="0 0.0330469 12.6788 0.0330469 12.6788 12.718 0 12.718"/>
        <polygon id="path-3" points="0.0103576 0.00128879 1.81576 0.00128879 1.81576 2.2833 0.0103576 2.2833"/>
    </defs>
    <g fill="none" fill-rule="evenodd">
        <g id="SPB_&amp;_AltPay_NewAssets" transform="translate(-100 -159)">
            <g transform="translate(100 159)">
                <path d="m30.5813 12h-3.10641c-0.345472 0-0.626586-0.275416-0.626586-0.620194s0.281114-0.648304 0.626586-0.648304h4.7293v-2.33404h-4.7293c-1.65063 0-2.99362 1.34633-2.99362 2.99366 0 1.64732 1.34299 2.99366 2.99362 2.99366h3.06421c0.345523 0 0.626637 0.2743 0.626637 0.619078 0 0.344778-0.281114 0.598681-0.626637 0.598681h-6.57076c-0.557867 1.06554-1.10032 1.97886-2.2015 2.43552h8.81446c1.62289-0.0233911 2.95041-1.39748 2.95041-3.03024 0-1.63266-1.32752-2.98442-2.95041-3.00781" fill="#71706F"/>
                <path d="m18.6732 15.6026h-2.39361v-2.40335c0-1.34299 1.06872-2.43562 2.39361-2.43562s2.40273 1.09263 2.40273 2.43562c0 1.34304-1.07785 2.40335-2.40273 2.40335m0-7.20507c-2.63283 0-4.77722 2.15822-4.77722 4.81015v0.10148 9.90444h2.38362v-5.17548h2.38864c2.63288 0 4.76972-2.18694 4.76972-4.83887s-2.13186-4.80173-4.76475-4.80173" fill="#71706F"/>
                <g transform="translate(0 6.84223)">
                    <mask id="mask-2" fill="white">
                        <use xlink:href="#path-1"/>
                    </mask>
                    <path d="m6.34968 11.1958c-2.25378 0-4.14856-1.60678-4.66134-3.70589 0 0-0.148139-0.694021-0.148139-1.15104s0.140228-1.15819 0.140228-1.15819c0.516433-2.09394 2.40892-3.65318 4.659-3.65318 2.64637 0 4.81789 2.15229 4.81789 4.7999v1.16438h-7.0309c0.415205 0.811839 1.25495 1.2685 2.22325 1.2685h6.32043l0.0086723-6.86608c0-1.02368-0.837055-1.86119-1.86023-1.86119h-8.95823c-1.02318 0-1.86034 0.812144-1.86034 1.83582v8.9626c0 1.02368 0.837156 1.88656 1.86034 1.88656h8.95823c0.918199 0 1.68415-0.65962 1.83214-1.5222h-6.30101z" fill="#C8036F" mask="url(#mask-2)"/>
                </g>
                <path d="m6.33944 10.6481c-0.964603 0-1.80348 0.590816-2.22036 1.35192h4.44083c-0.416879-0.761099-1.25571-1.35192-2.22046-1.35192" fill="#C8036F"/>
                <path d="m10.3966 3.96073c0-2.18745-1.81702-3.96071-4.05838-3.96071-2.20424 0-3.99697 1.71526-4.05585 3.85258-9.6359e-4 0.00903171-2.0286e-4 0.0178097-2.0286e-4 0.0270951v1.19026c0 0.142376 0.115884 0.283129 0.261741 0.283129h1.49311c0.145857 0 0.273761-0.140753 0.273761-0.283129v-1.10923c0-1.09233 0.909324-1.98104 2.02861-1.98104 1.11928 0 2.02861 0.88871 2.02861 1.98104v1.10923c0 0.142376 0.118319 0.283129 0.264176 0.283129h1.49316c0.145857 0 0.271276-0.140753 0.271276-0.283129v-1.10923z" fill="#C8036F"/>
                <g fill="#71706F">
                    <path d="m20.7599 20.7474c0 0.10493 0.0809415 0.15288 0.167918 0.15288 0.0929103 0 0.215844-0.0749429 0.215844-0.212905 0-0.0988922-0.0720156-0.15288-0.152906-0.15288-0.107922 0-0.230856 0.0689048-0.230856 0.212905zm-0.719547 0.0029937c0 0.101937 0.078 0.149886 0.161934 0.149886 0.10493 0 0.218887-0.0749429 0.218887-0.215898 0-0.0989429-0.0660312-0.149886-0.152957-0.149886-0.107871 0-0.227863 0.0689048-0.227863 0.215898zm1.30713 0.382833-0.215844 1.22273c-0.107922 0.618013-0.51268 0.90104-1.06132 0.90104-0.464653 0-0.824426-0.303019-0.719446-0.900025l0.215793-1.22375h0.332844l-0.215945 1.22273c-0.0659298 0.381108 0.10498 0.598072 0.428746 0.598072 0.332793 0 0.61761-0.198038 0.686532-0.597057l0.215844-1.22375h0.332793z"/>
                    <path d="m21.9179 22.5591c-0.0119688 0.245937 0.146871 0.404905 0.377727 0.404905 0.290801 0 0.572575-0.225032 0.590579-0.566867 0.0120196-0.248981-0.149863-0.395975-0.374785-0.395975-0.287809 0-0.575618 0.231019-0.59352 0.557937zm0.233848-1.42589-0.149914 0.844922c0.128867-0.173886 0.386704-0.265877 0.56659-0.265877 0.371742 0 0.629579 0.217979 0.629579 0.622833 0 0.572905-0.398774 0.917429-0.90836 0.917429-0.197891 0-0.365809-0.0735729-0.467696-0.259484l-0.0569532 0.220516h-0.290852l0.36875-2.08034h0.308856z"/>
                    <path d="m24.7516 22.351c0.0239883-0.2537-0.125926-0.356956-0.374786-0.356956-0.22477 0-0.431637 0.103256-0.521657 0.356956h0.896442zm-0.94736 0.2537c-0.0120195 0.20296 0.146871 0.368676 0.416727 0.368676 0.149914 0 0.347704-0.0586554 0.455626-0.160592l0.167918 0.194131c-0.182828 0.167848-0.452684 0.251416-0.680497 0.251416-0.425704 0-0.674563-0.25507-0.674563-0.645006 0-0.518918 0.4077-0.905607 0.929356-0.905607 0.476723 0 0.746528 0.288102 0.584645 0.896981h-1.19921z"/>
                    <path d="m25.8284 21.7421-0.0150117 0.195602c0.14398-0.189158 0.317832-0.227721 0.476672-0.227721 0.14393 0 0.272797 0.0510951 0.34177 0.126038l-0.18582 0.269987c-0.0659805-0.0598224-0.13191-0.0898097-0.245867-0.0898097-0.212902 0-0.422661 0.127712-0.470688 0.400693l-0.140836 0.796668h-0.308856l0.260828-1.47146h0.287809z"/>
                    <polygon points="28.1193 21.7421 28.2751 22.9058 28.8388 21.7421 29.1836 21.7421 28.4101 23.2135 28.0473 23.2135 27.9005 22.2428 27.6636 22.7251 27.4058 23.2135 27.046 23.2135 26.7852 21.7421 27.133 21.7421 27.2859 22.9058 27.8524 21.7421"/>
                    <path d="m30.5275 22.351c0.0239376-0.2537-0.125926-0.356956-0.374785-0.356956-0.22477 0-0.431637 0.103256-0.521657 0.356956h0.896442zm-0.94736 0.2537c-0.0120195 0.20296 0.146871 0.368676 0.416727 0.368676 0.149914 0 0.347704-0.0586554 0.455626-0.160592l0.167918 0.194131c-0.182828 0.167848-0.452684 0.251416-0.680497 0.251416-0.425704 0-0.674563-0.25507-0.674563-0.645006 0-0.518918 0.4077-0.905607 0.929356-0.905607 0.476723 0 0.746528 0.288102 0.584645 0.896981h-1.19921z"/>
                    <path d="m31.3524 21.3412c0 0.10493 0.078 0.15912 0.161984 0.15912 0.119891 0 0.230805-0.0781396 0.230805-0.224981 0-0.0990951-0.0750078-0.156127-0.155949-0.156127-0.110914 0-0.23684 0.0721015-0.23684 0.221987zm0.272797 0.400846-0.260727 1.47146h-0.308856l0.260828-1.47146h0.308754z"/>
                    <path d="m32.9956 22.1061c-0.0959532-0.107975-0.218836-0.137962-0.365708-0.137962-0.203976 0-0.347805 0.0690571-0.347805 0.197987 0 0.107975 0.116848 0.153082 0.290801 0.168 0.269805 0.0239493 0.614567 0.114013 0.542602 0.494918-0.0509181 0.275924-0.326758 0.437886-0.71052 0.437886-0.239782 0-0.470688-0.0539873-0.626536-0.27293l0.200832-0.218943c0.110914 0.15288 0.305813 0.215949 0.479664 0.218943 0.146871 0 0.320824-0.0539873 0.347805-0.191949 0.0269805-0.131975-0.0899688-0.182918-0.305813-0.204025-0.251852-0.024-0.52759-0.116854-0.52759-0.395873 0-0.368981 0.398622-0.497911 0.698501-0.497911 0.227813 0 0.395731 0.0509429 0.533676 0.197987l-0.20991 0.203873z"/>
                    <path d="m33.9703 21.7421-0.140836 0.792406c-0.0449844 0.252025 0.0689727 0.426165 0.326758 0.426165 0.242824 0 0.449692-0.201285 0.491582-0.447222l0.134902-0.771349h0.308805l-0.260727 1.47146h-0.278832l0.0209454-0.213209c-0.173852 0.164956-0.344813 0.24274-0.551579 0.24274-0.362766 0-0.57861-0.260194-0.500711-0.70696l0.140938-0.79403h0.308754z"/>
                    <path d="m36.4472 23.2135 0.140938-0.787586c0.044883-0.255019-0.0418907-0.423932-0.323766-0.423932-0.245817 0-0.452785 0.197835-0.494676 0.440778l-0.134902 0.77074h-0.308805l0.260879-1.47146h0.281723l-0.0209454 0.215036c0.17091-0.158968 0.347704-0.237362 0.539559-0.237362 0.359774 0 0.593723 0.250402 0.512782 0.703408l-0.140938 0.790376h-0.311848z"/>
                </g>
                <g transform="translate(37.1743 21.709)">
                    <mask id="mask-4" fill="white">
                        <use xlink:href="#path-3"/>
                    </mask>
                    <path d="m0.40664 0.859099c0 0.251822 0.164875 0.404905 0.401867 0.404905 0.638403 0 0.809364-0.980803 0.170707-0.980803-0.30277 0-0.572575 0.224829-0.572575 0.575899zm-0.0869766 0.848372c-0.0209454 0.20296 0.134902 0.285057 0.395832 0.285057 0.227863 0 0.473731-0.127307 0.530684-0.45118l0.0449337-0.252685c-0.134902 0.188956-0.38077 0.263543-0.563547 0.263543-0.377879 0-0.641649-0.225032-0.641649-0.633082 0-0.581784 0.431637-0.917835 0.920278-0.917835 0.206969 0 0.39284 0.0982833 0.458821 0.266283l0.0509688-0.23452h0.299778l-0.257887 1.5152c-0.0958518 0.560981-0.512629 0.73507-0.893349 0.73507-0.455778 0-0.707477-0.220668-0.644641-0.575848h0.299778z" fill="#71706F" mask="url(#mask-4)"/>
                </g>
            </g>
        </g>
    </g>
</svg>
