<?xml version="1.0" encoding="UTF-8"?>
<svg width="52.3" height="24" version="1.1" viewBox="0 0 52.3 24" xmlns="http://www.w3.org/2000/svg">
    <g transform="matrix(1.24917 0 0 1.24917 -.177863 -.232649)" fill="none" fill-rule="evenodd">
        <g transform="translate(-100,-159)">
            <g transform="translate(100,159)">
                <path d="m0.142457 1.48438c0-0.713939 0.585703-1.29814 1.30201-1.29814h39.2059c0.716308 0 1.30201 0.584197 1.30201 1.29814v16.6168c0 0.713939-0.585703 1.2979-1.30201 1.2979h-39.2059c-0.716308 0-1.30201-0.58396-1.30201-1.2979z" fill="#eda42d"/>
                <polygon points="41.9524 2.07266 0.14248 2.07266 0.14248 17.5125 41.9524 17.5125" fill="#fefefe"/>
                <g fill="#ec1d24">
                    <path d="m35.5753 6.08262c-1.91293 0-3.47235 1.55501-3.47235 3.46201 0 1.90653 1.55942 3.46178 3.47235 3.46178 1.91246 0 3.47187-1.55525 3.47187-3.46178 0-1.907-1.55942-3.46201-3.47187-3.46201"/>
                    <path d="m6.95585 6.08262c-1.91317 0-3.47258 1.55501-3.47258 3.46201 0 1.90653 1.55942 3.46178 3.47258 3.46178 1.91222 0 3.47187-1.55525 3.47187-3.46178 0-1.907-1.55965-3.46201-3.47187-3.46201"/>
                    <path d="m35.5753 15.0141c-3.02153 0-5.48591-2.4568-5.48591-5.46934 0-3.01325 2.46438-5.46958 5.48591-5.46958 3.02177 0 5.48567 2.45633 5.48567 5.46958 0 3.01254-2.4639 5.46934-5.48567 5.46934zm-23.1341-5.46934c0 3.01254-2.4639 5.46934-5.48543 5.46934-3.02225 0-5.48591-2.4568-5.48591-5.46934 0-3.01325 2.46366-5.46958 5.48591-5.46958 3.02153 0 5.48543 2.45633 5.48543 5.46958zm22.8617-6.50894c-3.21447-0.073766-4.72559 1.98124-6.91876 4.51584l-2.06899 2.39063 3.27632 3.9103c0.780541 1.2016-0.709171 2.39395-1.6334 1.29458l-3.02914-3.60243-2.95159 3.41149c-0.939932 1.08585-2.41275-0.127371-1.61556-1.31759l3.20424-3.71486-2.0992-2.49689 1.35054-1.66744 2.13489 2.5569 1.84013-2.13423c0.903058-1.04648 1.82396-2.43332 3.01749-3.14631h-29.6674v13.5139h6.93637c3.2147 0 4.6742-1.91649 6.8079-4.50043l2.01332-2.4383-3.36648-3.83345c-0.807423-1.18334 0.653979-2.40937 1.60366-1.33158l3.11122 3.53198 2.87261-3.47862c0.914477-1.10767 2.41466 0.071868 1.6453 1.28011l-3.11764 3.78815 2.15654 2.44779-1.35887 1.60435-2.14655-2.41387-1.79018 2.1755c-0.878554 1.06711-1.76805 2.4281-2.94493 3.16837h29.3877v-13.5139z"/>
                </g>
            </g>
        </g>
    </g>
</svg>
