<?xml version="1.0" encoding="UTF-8"?>
<svg width="27.9" height="24" version="1.1" viewBox="0 0 27.9 24" xmlns="http://www.w3.org/2000/svg">
    <g transform="matrix(1.17091 0 0 1.17091 2.01491e-6 -.00665022)" fill="none" fill-rule="evenodd">
        <g transform="translate(-100,-159)">
            <g transform="translate(100,159)">
                <path id="Path" d="m13.6553 0.0389109h-13.6554v20.4969h13.6554v-0.0039c2.98282-0.04022 5.3458-0.773627 7.02268-2.18568 2.0394-1.7173 3.0734-4.42874 3.0734-8.05887 0-1.73531-0.27198-3.29179-0.808356-4.62625-0.51315-1.27657-1.27148-2.36199-2.25385-3.22612-1.7302-1.5219-4.15893-2.3448-7.03388-2.39156z" fill="#000"/>
                <path d="m13.397 1.40025c2.64651 0 4.85218 0.709684 6.37858 2.05235 1.72557 1.51777 2.60045 3.8173 2.60045 6.83476 0 5.98008-2.93708 8.88711-8.97904 8.88711h-12.0216v-17.7742z" fill="#fff"/>
                <path d="m13.0213 17.8382h-4.8277v-14.7806h4.8277-0.194838c4.02614 0 8.31168 1.57265 8.31168 7.40975 0 6.17082-4.28554 7.3709-8.31168 7.3709z" fill="#cd0067"/>
                <polygon points="6.44614 17.8312 6.44614 11.5761 2.64011 11.5761 2.64011 17.8312" fill="#000"/>
                <path d="m6.73349 8.44882c0 1.17756-0.964643 2.13279-2.15442 2.13279-1.18974 0-2.15442-0.95523-2.15442-2.13279 0-1.17759 0.964683-2.1324 2.15442-2.1324 1.18978 0 2.15442 0.954802 2.15442 2.1324" fill="#000"/>
                <g transform="translate(7.2308 6.76685)" fill="#fff">
                    <path d="m0.855246 0.709023v2.35075h0.542821c0.203012 0 0.349554-0.011319 0.439625-0.033917 0.117893-0.0290545 0.215706-0.0782571 0.293515-0.147646 0.0777311-0.0694281 0.141236-0.183586 0.190359-0.34259 0.0491223-0.158965 0.0736834-0.375612 0.0736834-0.650018 0-0.274368-0.0245611-0.484986-0.0736834-0.631854-0.0491223-0.146869-0.117893-0.261454-0.206314-0.343757-0.0884594-0.0823025-0.200615-0.138001-0.336507-0.167094-0.101546-0.0225593-0.300471-0.0338778-0.596816-0.0338778zm-0.724534-0.602877h1.32548c0.298899 0 0.526787 0.0226371 0.683625 0.0679112 0.210676 0.0614546 0.39117 0.170673 0.541445 0.327537 0.150275 0.156865 0.264592 0.348969 0.342991 0.576156 0.078399 0.227226 0.117618 0.507428 0.117618 0.840605 0 0.292726-0.036744 0.545001-0.11023 0.756903-0.0898348 0.25877-0.218064 0.468222-0.384647 0.628315-0.125792 0.121314-0.295677 0.215947-0.509653 0.283858-0.160099 0.050136-0.374076 0.0752235-0.64193 0.0752235h-1.3647z"/>
                    <path d="m1.45619 0.203384c0.28821 0 0.508946 0.021548 0.656077 0.0640217 0.192598 0.0561648 0.360125 0.157526 0.497707 0.301089 0.139743 0.145896 0.247851 0.32781 0.321338 0.540723 0.074548 0.216024 0.112313 0.488253 0.112313 0.809139 0 0.280552-0.03529 0.524581-0.104925 0.72532-0.0843331 0.242979-0.205528 0.44154-0.360164 0.590158-0.114357 0.110268-0.272845 0.198055-0.471181 0.261026-0.14941 0.0467522-0.355409 0.0705561-0.611946 0.0705561h-1.26645v-3.36203zm-1.42372-0.194477v3.75099h1.46294c0.276657 0 0.502619-0.026877 0.67156-0.079774 0.227927-0.0723067 0.412391-0.175535 0.548558-0.306884 0.17688-0.170011 0.31454-0.394243 0.409012-0.666393 0.0767093-0.22112 0.115575-0.486425 0.115575-0.788486 0-0.342279-0.0413413-0.635666-0.122884-0.872033-0.0826433-0.239517-0.20537-0.445312-0.364684-0.611629-0.161671-0.168767-0.358475-0.287864-0.584987-0.353908-0.167605-0.0483858-0.400209-0.0718785-0.711369-0.0718785z"/>
                    <path d="m1.18191 0.806261c0.358239 0 0.510596 0.0171528 0.57532 0.0315441 0.118326 0.0253208 0.215902 0.0733954 0.290686 0.143018 0.075963 0.0707116 0.136678 0.172851 0.180377 0.303461 0.045586 0.136328 0.068693 0.338661 0.068693 0.601321 0 0.263438-0.023343 0.472578-0.0694 0.621586-0.043581 0.141112-0.098166 0.241656-0.162182 0.298794-0.065313 0.058265-0.149921 0.100506-0.251467 0.125554-0.082093 0.020576-0.221915 0.031-0.415889 0.031h-0.444537v-2.15628zm-0.424927-0.194477v2.54523h0.641065c0.21323 0 0.36492-0.012097 0.463793-0.036873 0.132709-0.032711 0.245611-0.089848 0.335132-0.169739 0.092114-0.082225 0.163597-0.208596 0.218535-0.386347 0.052463-0.169778 0.077967-0.391715 0.077967-0.678451 0-0.287475-0.02574-0.504122-0.078674-0.662426-0.0540741-0.161688-0.132238-0.290898-0.23225-0.384013-0.101192-0.0942044-0.230049-0.158537-0.383036-0.191287-0.109012-0.0242318-0.311278-0.0360948-0.617604-0.0360948z"/>
                    <polygon points="3.96169 0.106126 6.62164 0.106126 6.62164 0.709003 4.68622 0.709003 4.68622 1.49663 6.48658 1.49663 6.48658 2.09951 4.68622 2.09951 4.68622 3.05976 6.69041 3.05976 6.69041 3.66264 3.96169 3.66264"/>
                    <path d="m6.52342 0.203384v0.408401h-1.93542v0.982106h1.80035v0.408401h-1.80035v1.15472h2.00419v0.408401h-2.53223v-3.36203zm-2.65995-0.194477v3.75099h2.92521v-0.797354h-2.00419v-0.765771h1.80035v-0.797354h-1.80035v-0.593153h1.93542v-0.797354z"/>
                    <path d="m9.4123 2.25268-0.49531-1.31758-0.485367 1.31758zm1.33569 1.40995h-0.789336l-0.313518-0.807078h-1.43555l-0.297406 0.807078h-0.769766l1.39637-3.55651h0.772241z"/>
                    <path d="m9.24452 0.203384c0.0459 0.113574 1.26032 3.11936 1.35837 3.36203h-0.576735c-0.041223-0.106184-0.313557-0.807078-0.313557-0.807078h-1.57176s-0.257479 0.698676-0.297367 0.807078h-0.557479c0.0946684-0.241112 1.27478-3.24682 1.32001-3.36203zm-0.772988-0.194477-1.47269 3.75099h0.982092s0.25744-0.698715 0.297366-0.807078h1.29938c0.041184 0.106145 0.313518 0.807078 0.313518 0.807078h1.0019l-1.51556-3.75099z"/>
                    <path d="m8.9179 1.21643c0.107676 0.286425 0.289743 0.770672 0.353012 0.939011h-0.698912c0.0617762-0.167639 0.240228-0.652041 0.345899-0.939011zm-0.626643 1.13349h1.26244l-0.637646-1.69615z"/>
                    <polygon points="11.3541 0.135297 12.0787 0.135297 12.0787 3.05976 13.8839 3.05976 13.8839 3.66264 11.3541 3.66264"/>
                    <path d="m11.9804 0.232555v2.92446h1.80526v0.408401h-2.33335v-3.33286zm-0.724534-0.194477v3.72181h2.72628v-0.797354h-1.80526v-2.92446z"/>
                </g>
            </g>
        </g>
    </g>
</svg>
