<?xml version="1.0" encoding="UTF-8"?>
<svg width="43" height="24" version="1.1" viewBox="0 0 43 24" xmlns="http://www.w3.org/2000/svg" xmlns:xlink="http://www.w3.org/1999/xlink">
    <defs>
        <polygon id="path-1" points="3.08644e-5 0.00960615 42.6159 0.00960615 42.6159 24 3.08644e-5 24"/>
    </defs>
    <g fill="none" fill-rule="evenodd">
        <g transform="translate(-100 -159)">
            <g transform="translate(100 159)">
                <g fill="#1A4B67">
                    <path d="m29.01 14.6207s-1.06257 0.218337-1.05146-0.542952c0.0113007-0.761226 1.93564-0.715732 2.13285-0.654078 0 0 0.0605394 0.863838-1.08139 1.19703m0.319772-4.80229c-1.65207-0.0153513-2.42443 0.93556-2.42443 0.93556-0.501638 0.532573-0.180004 1.25371 0.31201 1.30579 0.707037 0.0748299 0.699648-0.51834 1.78489-0.781239 0.951989-0.230705 0.993218 0.652089 0.993218 0.652089-4.06023-0.101058-3.86638 3.30936-2.48416 4.03367 1.32541 0.694476 2.56432-0.181668 2.56432-0.181668s0.0465687 0.471975 0.702318 0.471975c0.750439 0 0.749322-0.749604 0.749322-0.749604l-0.0030425-3.31955c-0.0493628-2.42868-2.19444-2.36702-2.19444-2.36702"/>
                    <path d="m42.417 14.9133-1.65071-2.48663 1.2132-1.14816s0.559979-0.518768 0.100244-1.03289c-0.509516-0.569523-1.1168-0.0073746-1.1168-0.0073746l-1.52452 1.41742v-2.84507c0-0.407652-0.330018-0.737839-0.737186-0.737839-0.407539 0-0.737557 0.330187-0.737557 0.737839v6.69453c0 0.407528 0.330018 0.737839 0.737557 0.737839 0.407167 0 0.737186-0.330311 0.737186-0.737839v-1.78232l0.278875-0.27875 1.49344 2.34248s0.486731 0.813321 1.20361 0.295669c0.538989-0.38906 0.0026624-1.16892 0.0026624-1.16892"/>
                    <path d="m37.0888 12.092c0-2.41594-1.99254-2.75635-3.34757-1.98996-0.0010414 8.669e-4 -0.0022665 0.0035292-0.0029404 0.0042722-0.101933-0.293851-0.375941-0.506345-0.701711-0.506345-0.411716 0-0.745633 0.337687-0.745633 0.75413v5.03719c0 0.416567 0.333918 0.75413 0.745633 0.75413 0.412022 0 0.746062-0.337563 0.746062-0.75413l-0.0102914-3.39835s0.180895-0.217757 0.47132-0.425978c0.697607-0.499844 1.36275-0.329576 1.36275 0.524734l0.017091 3.31186c0 0.410004 0.328405 0.741871 0.733872 0.741871 0.405161 0 0.733566-0.331867 0.733566-0.741871l-0.002144-3.31155z"/>
                </g>
                <path d="m15.5613 16.2863c0.171762-0.289085 0.201692-0.492684 0.201692-0.492684l-1.69348-4.45866s-0.30725-0.862787 0.369882-1.11831c0.717347-0.271032 0.976314 0.419172 1.0302 0.563901 0.0538872 0.144728 1.06992 2.86994 1.06992 2.86994l0.978223-2.86367s0.280214-0.890393 1.06377-0.572896c0.647509 0.262596 0.314886 1.13593 0.314886 1.13593s-1.00113 2.98377-1.8403 5.14856c-0.501244 1.29331-0.929324 1.42073-1.41844 1.54201-0.654592 0.162408-1.89221 0.0819487-1.89221-0.73791 0-0.646656 0.657302-0.686979 0.953774-0.677364 0.0158891 3.102e-4 0.628726 0.0537846 0.862073-0.338837" fill="#00C0EE"/>
                <path d="m11.5669 8.8571-1.5532 4.30194-1.69335-4.27576s-0.250894-0.810552-0.95692-0.810552c-0.818001 0-0.791429 0.650451-0.809844 0.810552-0.0183536 0.160225 0 6.6862 0 6.6862s-0.00815714 0.685064 0.742301 0.685064c0.766896 0 0.730127-0.691206 0.736183-0.691206 0.00611786 0 0-3.44511 0-3.44511l1.24545 3.44511s0.183968 0.677373 0.760654 0.665029c0.576686-0.01222 0.742301-0.665029 0.742301-0.665029l1.043-3.43891v3.43891s0 0.691206 0.754598 0.691206c0.730003 0 0.730003-0.691206 0.730003-0.691206l9.887e-4 -6.67386s0-0.816755-0.792418-0.812847c-0.657145 0.00310153-0.906741 0.63544-0.949752 0.780467-0.0049437 0.0169343-0.0072302 0.0261768-0.0072302 0.0261768" fill="#00C0EE"/>
                <mask id="mask-2" fill="white">
                    <use xlink:href="#path-1"/>
                </mask>
                <path d="m42.6159 18.6972h-13.0951l-9.61511-0.0015385 0.0066667 0.0105846c-1.90044 2.22012-4.72317 3.63206-7.88054 3.63206-5.72447 0-10.3651-4.62665-10.3651-10.3334 0-5.70683 4.64058-10.333 10.3651-10.333 3.17088 0 6.00713 1.42 7.90794 3.65637h2.08125c-2.15976-3.20542-5.82472-5.31858-9.98919-5.31858-6.64485 0-12.0319 5.37052-12.0319 11.9953 0 6.62474 5.387 11.9951 12.0319 11.9951 3.48594 0 6.61862-1.48351 8.81474-3.84578l20.783-0.0206153 0.986301-1.43643z" fill="#00C0EE" mask="url(#mask-2)"/>
                <path d="m23.5643 14.6942h-2.08733v-1.99102h2.08733c0.504845 0.026016 0.995029 0.283093 0.995029 0.995634 0 0.731776-0.445767 0.995387-0.995029 0.995387zm-2.08733-5.10856h1.94558c0.389707 0.0100488 0.79882 0.218053 0.79882 0.799528 0 0.605888-0.357735 0.799405-0.79882 0.799405h-1.94558v-1.59893zm3.73173 2.20217c0.0397346-0.0546212 0.539036-0.45941 0.499609-1.53574-0.0795308-2.17917-1.97071-2.15433-2.38931-2.16703-0.674318-0.0202826-1.08023-0.0121449-2.31791 0-1.04505 0.0103571-1.03741 0.960864-1.03741 0.960864l-8e-7 7.09952h3.52264c1.88521 0 2.58645-1.03854 2.58645-2.4905 0-1.4609-0.864059-1.86711-0.864059-1.86711z" fill="#1A4B67"/>
            </g>
        </g>
    </g>
</svg>
