<?xml version="1.0" encoding="UTF-8"?>
<svg width="34" height="24" fill="none" version="1.1" viewBox="0 0 34 24" xmlns="http://www.w3.org/2000/svg">
    <rect x=".5" y=".5" width="33" height="23" rx="3.5" fill="#fff" stroke="#d1d9e0"/>
    <g transform="matrix(.28902 0 0 .28903 9.5087 4.8629)" clip-path="url(#a)" display="none">
        <path d="m38.914 13.35c0 5.574-5.144 12.15-12.927 12.15h-7.497l-0.368 2.322-1.749 11.178h-9.317l5.605-36h15.095c5.083 0 9.082 2.833 10.555 6.77a9.687 9.687 0 0 1 0.603 3.58z" fill="#002991"/>
        <path d="m44.284 23.7a12.894 12.894 0 0 1-12.754 10.8h-5.206l-2.167 13.5h-9.267l1.483-9 1.75-11.178 0.367-2.322h7.497c7.773 0 12.927-6.576 12.927-12.15 3.825 1.974 6.055 5.963 5.37 10.35z" fill="#60cdff"/>
        <path d="m38.914 13.35c-1.604-0.839-3.549-1.35-5.666-1.35h-12.64l-2.118 13.5h7.497c7.773 0 12.927-6.576 12.927-12.15z" fill="#008cff"/>
    </g>
    <g transform="matrix(.215524 0 0 .215518 -.807756 .235356)" fill="#000">
        <path d="m45.186 35.641c1.4172-1.7727 2.379-4.1528 2.1253-6.5851-2.0746 0.10316-4.6063 1.3687-6.0721 3.1428-1.3161 1.5192-2.4809 3.999-2.1772 6.3293 2.3289 0.20201 4.6556-1.1641 6.124-2.887"/>
        <path d="m47.285 38.983c-3.3821-0.20146-6.2577 1.9195-7.8729 1.9195-1.616 0-4.0893-1.818-6.7644-1.769-3.4818 0.05114-6.7124 2.0198-8.4793 5.1508-3.6341 6.2636-0.95904 15.555 2.5749 20.656 1.7162 2.5238 3.7845 5.3027 6.5098 5.2029 2.5749-0.10104 3.5842-1.6673 6.7142-1.6673 3.1276 0 4.0368 1.6673 6.7625 1.6168 2.8266-0.05054 4.5938-2.5251 6.31-5.0513 1.9688-2.877 2.7747-5.655 2.8254-5.8075-0.0507-0.05051-5.4506-2.122-5.5006-8.3336-0.05098-5.201 4.2395-7.6749 4.4414-7.8283-2.4229-3.5834-6.2086-3.9875-7.521-4.089"/>
        <path d="m76.734 31.944c7.351 0 12.47 5.0671 12.47 12.444 0 7.4036-5.2241 12.497-12.654 12.497h-8.1389v12.943h-5.8804v-37.885h14.204zm-8.3233 20.005h6.7473c5.1198 0 8.0336-2.7564 8.0336-7.5348 0-4.7779-2.9138-7.5084-8.0073-7.5084h-6.7736z"/>
        <path d="m90.74 61.979c0-4.8311 3.7018-7.7976 10.266-8.1653l7.5606-0.44614v-2.1264c0-3.0718-2.0742-4.9096-5.539-4.9096-3.2825 0-5.3304 1.5749-5.8287 4.0431h-5.3557c0.31499-4.9886 4.5678-8.6641 11.394-8.6641 6.6947 0 10.974 3.5443 10.974 9.0839v19.034h-5.4347v-4.5419h-0.13065c-1.6012 3.0718-5.0934 5.0144-8.7162 5.0144-5.4084 0-9.1892-3.3605-9.1892-8.3222zm17.826-2.494v-2.179l-6.8 0.41981c-3.3868 0.23649-5.3031 1.7329-5.3031 4.0958 0 2.415 1.9952 3.9905 5.0408 3.9905 3.9641 0 7.0623-2.7305 7.0623-6.327z"/>
        <path d="m119.34 79.989v-4.5946c0.4193 0.10483 1.3642 0.10483 1.8372 0.10483 2.6252 0 4.0431-1.1024 4.9091-3.9378 0-0.05267 0.49931-1.6802 0.49931-1.7066l-9.9762-27.646h6.1427l6.9843 22.474h0.10432l6.9843-22.474h5.9857l-10.345 29.063c-2.3619 6.6952-5.0924 8.8479-10.816 8.8479-0.47297 0-1.8909-0.05267-2.3102-0.13116z"/>
    </g>
</svg>
