<?xml version="1.0" encoding="UTF-8"?>
<svg width="76" height="24" version="1.1" viewBox="0 0 20.108 6.35" xmlns="http://www.w3.org/2000/svg">
    <g fill="none">
        <g transform="matrix(.26458 0 0 .26458 11.112 0)">
            <rect x=".5" y=".5" width="33" height="23" rx="3.5" fill="#fff" stroke="#d1d9e0"/>
            <path d="m10.75 15.858h-2.0598l-1.5446-6.0658c-0.07331-0.27903-0.22897-0.52571-0.45794-0.64197-0.57143-0.29217-1.2011-0.5247-1.888-0.64197v-0.23354h3.3181c0.45794 0 0.8014 0.35081 0.85864 0.75823l0.8014 4.3755 2.0588-5.1337h2.0025zm4.2339 0h-1.9452l1.6018-7.5833h1.9452zm4.1185-5.4825c0.0572-0.40845 0.4007-0.64198 0.8014-0.64198 0.6297-0.05864 1.3156 0.05863 1.888 0.34978l0.3435-1.6327c-0.5725-0.23354-1.2021-0.35081-1.7735-0.35081-1.8881 0-3.2619 1.0504-3.2619 2.5082 0 1.1091 0.9731 1.6914 1.6601 2.0422 0.7431 0.3498 1.0293 0.5833 0.9721 0.9331 0 0.5247-0.5725 0.7583-1.1439 0.7583-0.6869 0-1.3738-0.1749-2.0025-0.4671l-0.3434 1.6337c0.6869 0.2912 1.43 0.4085 2.117 0.4085 2.1169 0.0576 3.4325-0.9918 3.4325-2.5669 0-1.9836-2.6894-2.0998-2.6894-2.9743zm9.4973 5.4825-1.5445-7.5833h-1.6591c-0.3434 0-0.6869 0.23354-0.8014 0.58334l-2.8601 7h2.0025l0.3997-1.108h2.4604l0.229 1.108zm-2.9174-5.5411 0.5715 2.858h-1.6018z" clip-rule="evenodd" fill="#172b85" fill-rule="evenodd"/>
        </g>
        <g transform="scale(.26458)">
            <rect x=".5" y=".5" width="33" height="23" rx="3.5" fill="#fff" stroke="#d1d9e0"/>
            <g clip-rule="evenodd" fill-rule="evenodd">
                <path d="m17.179 16.829c-1.1841 0.9981-2.72 1.6006-4.3983 1.6006-3.7449 0-6.7807-2.9997-6.7807-6.7 0-3.7003 3.0358-6.7 6.7807-6.7 1.6783 0 3.2142 0.6025 4.3983 1.6005 1.184-0.99804 2.7199-1.6005 4.3983-1.6005 3.7448 0 6.7807 2.9997 6.7807 6.7 0 3.7003-3.0359 6.7-6.7807 6.7-1.6784 0-3.2143-0.6025-4.3983-1.6006z" fill="#ed0006"/>
                <path d="m17.179 16.829c1.4579-1.2289 2.3824-3.0575 2.3824-5.0994 0-2.042-0.9245-3.8706-2.3824-5.0995 1.1841-0.99804 2.72-1.6005 4.3983-1.6005 3.7449 0 6.7807 2.9997 6.7807 6.7 0 3.7003-3.0358 6.7-6.7807 6.7-1.6783 0-3.2142-0.6025-4.3983-1.6006z" fill="#f9a000"/>
                <path d="m17.179 16.829c1.4579-1.2289 2.3823-3.0575 2.3823-5.0994 0-2.042-0.9244-3.8705-2.3823-5.0994-1.458 1.2289-2.3824 3.0575-2.3824 5.0994 0 2.0419 0.9244 3.8705 2.3824 5.0994z" fill="#ff5e00"/>
            </g>
        </g>
    </g>
</svg>
