<?xml version="1.0" encoding="UTF-8"?>
<svg width="34" height="24" fill="none" version="1.1" viewBox="0 0 34 24" xmlns="http://www.w3.org/2000/svg">
    <rect x=".5" y=".5" width="33" height="23" rx="3.5" fill="#fff" stroke="#d1d9e0"/>
    <g transform="matrix(.28902 0 0 .28903 9.5087 4.8629)" clip-path="url(#a)">
        <path d="m38.914 13.35c0 5.574-5.144 12.15-12.927 12.15h-7.497l-0.368 2.322-1.749 11.178h-9.317l5.605-36h15.095c5.083 0 9.082 2.833 10.555 6.77a9.687 9.687 0 0 1 0.603 3.58z" fill="#002991"/>
        <path d="m44.284 23.7a12.894 12.894 0 0 1-12.754 10.8h-5.206l-2.167 13.5h-9.267l1.483-9 1.75-11.178 0.367-2.322h7.497c7.773 0 12.927-6.576 12.927-12.15 3.825 1.974 6.055 5.963 5.37 10.35z" fill="#60cdff"/>
        <path d="m38.914 13.35c-1.604-0.839-3.549-1.35-5.666-1.35h-12.64l-2.118 13.5h7.497c7.773 0 12.927-6.576 12.927-12.15z" fill="#008cff"/>
    </g>
</svg>
